<svg width="146" height="146" viewBox="0 0 146 146" fill="none" xmlns="http://www.w3.org/2000/svg">
<path fill-rule="evenodd" clip-rule="evenodd" d="M74.0592 56.0325L73 0L71.9408 56.0325C71.7995 56.0411 71.6587 56.0516 71.5184 56.0637L62.1199 0.815353L69.4234 56.3769C69.2849 56.4066 69.147 56.4379 69.0098 56.4709L51.4829 3.24319L66.9855 57.0946C66.853 57.1447 66.7214 57.1964 66.5906 57.2497L41.3265 7.22927L64.6827 58.1701C64.5595 58.2394 64.4371 58.3102 64.3158 58.3824L31.8776 12.6846L62.5666 59.5772C62.4551 59.664 62.3448 59.7521 62.2356 59.8415L23.3474 19.4872L60.6831 61.2828C60.5858 61.385 60.4897 61.4884 60.395 61.5931L15.9263 27.4852L59.0732 63.2485C58.9921 63.364 58.9124 63.4807 58.8342 63.5983L9.78015 36.5L57.7733 65.4319C57.7104 65.5583 57.6489 65.6857 57.5891 65.8139L5.04622 46.3301L56.8147 67.7855C56.7714 67.9199 56.7298 68.0551 56.6898 68.1909L1.83026 56.756L56.2202 70.2565C56.1976 70.3957 56.1768 70.5354 56.1576 70.6757L0.204132 67.5447L56.0013 72.7883C56.0004 72.8588 56 72.9293 56 73C56 73.0707 56.0004 73.1412 56.0013 73.2117L0.204132 78.4553L56.1576 75.3243C56.1768 75.4646 56.1976 75.6043 56.2202 75.7435L1.83026 89.244L56.6898 77.8091C56.7298 77.9449 56.7714 78.0801 56.8147 78.2145L5.04622 99.6699L57.5891 80.1861C57.6489 80.3143 57.7104 80.4417 57.7733 80.5681L9.78015 109.5L58.8342 82.4017C58.9124 82.5193 58.9921 82.636 59.0732 82.7515L15.9263 118.515L60.395 84.4069C60.4897 84.5116 60.5858 84.615 60.6831 84.7172L23.3474 126.513L62.2356 86.1585C62.3448 86.2479 62.4551 86.336 62.5666 86.4228L31.8776 133.315L64.3158 87.6176C64.4371 87.6898 64.5595 87.7606 64.6827 87.8299L41.3265 138.771L66.5906 88.7503C66.7214 88.8036 66.853 88.8553 66.9855 88.9054L51.4829 142.757L69.0098 89.5291C69.147 89.5621 69.2849 89.5934 69.4234 89.6231L62.1199 145.185L71.5184 89.9363C71.6587 89.9484 71.7995 89.9589 71.9408 89.9675L73 146L74.0592 89.9675C74.2005 89.9589 74.3413 89.9484 74.4816 89.9363L83.8801 145.185L76.5766 89.6231C76.7151 89.5934 76.853 89.5621 76.9902 89.5291L94.5171 142.757L79.0145 88.9054C79.147 88.8553 79.2786 88.8036 79.4094 88.7503L104.674 138.771L81.3173 87.8299C81.4405 87.7606 81.5629 87.6898 81.6842 87.6176L114.122 133.315L83.4334 86.4228C83.5449 86.336 83.6552 86.2479 83.7644 86.1585L122.653 126.513L85.3169 84.7172C85.4142 84.615 85.5103 84.5116 85.605 84.4069L130.074 118.515L86.9268 82.7515C87.0079 82.636 87.0876 82.5193 87.1658 82.4017L136.22 109.5L88.2267 80.5681C88.2896 80.4417 88.3511 80.3143 88.4109 80.1861L140.954 99.6699L89.1853 78.2145C89.2286 78.0801 89.2702 77.9449 89.3102 77.8091L144.17 89.244L89.7798 75.7435C89.8024 75.6043 89.8232 75.4646 89.8424 75.3243L145.796 78.4553L89.9987 73.2117C89.9996 73.1412 90 73.0707 90 73C90 72.9293 89.9996 72.8588 89.9987 72.7883L145.796 67.5447L89.8424 70.6757C89.8232 70.5354 89.8024 70.3957 89.7798 70.2565L144.17 56.756L89.3102 68.1909C89.2702 68.0551 89.2286 67.9199 89.1853 67.7855L140.954 46.3301L88.4109 65.8139C88.3511 65.6857 88.2896 65.5583 88.2267 65.4319L136.22 36.5L87.1658 63.5983C87.0876 63.4807 87.0079 63.364 86.9268 63.2485L130.074 27.4852L85.605 61.5931C85.5103 61.4884 85.4142 61.385 85.3169 61.2828L122.653 19.4872L83.7644 59.8415C83.6552 59.7521 83.5449 59.664 83.4334 59.5772L114.122 12.6846L81.6842 58.3824C81.5629 58.3102 81.4405 58.2394 81.3173 58.1701L104.674 7.22927L79.4094 57.2497C79.2786 57.1964 79.147 57.1447 79.0145 57.0946L94.5171 3.24319L76.9902 56.4709C76.853 56.4379 76.7151 56.4066 76.5766 56.3769L83.8801 0.815353L74.4816 56.0637C74.3413 56.0516 74.2005 56.0411 74.0592 56.0325ZM74.0592 56.0325C73.7089 56.0109 73.3557 56 73 56C72.6443 56 72.2911 56.0109 71.9408 56.0325L71.898 58.2952L71.5184 56.0637C70.8066 56.1251 70.1074 56.2304 69.4234 56.3769L69.7187 58.6237L69.0098 56.4709C68.3176 56.6374 67.6418 56.8463 66.9855 57.0946L67.6127 59.2733L66.5906 57.2497C65.9331 57.5175 65.2961 57.8253 64.6827 58.1701L65.627 60.2296L64.3158 58.3824C63.7071 58.7448 63.123 59.1441 62.5666 59.5772L63.806 61.4711L62.2356 59.8415C61.6886 60.2895 61.1701 60.771 60.6831 61.2828L62.1904 62.9702L60.395 61.5931C59.9212 62.1163 59.4796 62.6691 59.0732 63.2485L60.8163 64.6933L58.8342 63.5983C58.4441 64.1849 58.0894 64.7971 57.7733 65.4319L59.7143 66.602L57.5891 65.8139C57.2916 66.4506 57.0325 67.1088 56.8147 67.7855L58.9091 68.6535L56.6898 68.1909C56.4919 68.8631 56.3344 69.5526 56.2202 70.2565L58.4187 70.8022L56.1576 70.6757C56.063 71.3675 56.01 72.0726 56.0013 72.7883L58.254 73L56.0013 73.2117C56.01 73.9274 56.063 74.6325 56.1576 75.3243L58.4187 75.1978L56.2202 75.7435C56.3344 76.4474 56.4919 77.1369 56.6898 77.8091L58.9091 77.3465L56.8147 78.2145C57.0325 78.8912 57.2916 79.5494 57.5891 80.1861L59.7143 79.398L57.7733 80.5681C58.0894 81.2029 58.4441 81.8151 58.8342 82.4017L60.8163 81.3067L59.0732 82.7515C59.4796 83.3309 59.9212 83.8837 60.395 84.4069L62.1904 83.0298L60.6831 84.7172C61.1701 85.229 61.6886 85.7105 62.2356 86.1585L63.806 84.5289L62.5666 86.4228C63.123 86.8559 63.7071 87.2552 64.3158 87.6176L65.627 85.7704L64.6827 87.8299C65.2961 88.1747 65.9331 88.4825 66.5906 88.7503L67.6127 86.7267L66.9855 88.9054C67.6418 89.1537 68.3176 89.3626 69.0098 89.5291L69.7187 87.3763L69.4234 89.6231C70.1074 89.7696 70.8066 89.8749 71.5184 89.9363L71.898 87.7048L71.9408 89.9675C72.2911 89.9891 72.6443 90 73 90C73.3557 90 73.7089 89.9891 74.0592 89.9675L74.102 87.7048L74.4816 89.9363C75.1934 89.8749 75.8926 89.7696 76.5766 89.6231L76.2813 87.3763L76.9902 89.5291C77.6824 89.3626 78.3582 89.1537 79.0145 88.9054L78.3873 86.7267L79.4094 88.7503C80.0669 88.4825 80.7039 88.1747 81.3173 87.8299L80.373 85.7704L81.6842 87.6176C82.2929 87.2552 82.877 86.8559 83.4334 86.4228L82.194 84.5289L83.7644 86.1585C84.3114 85.7105 84.8299 85.229 85.3169 84.7172L83.8096 83.0298L85.605 84.4069C86.0788 83.8837 86.5204 83.3309 86.9268 82.7515L85.1837 81.3067L87.1658 82.4017C87.5559 81.8151 87.9106 81.2029 88.2267 80.5681L86.2857 79.398L88.4109 80.1861C88.7084 79.5494 88.9675 78.8912 89.1853 78.2145L87.0909 77.3465L89.3102 77.8091C89.5081 77.1369 89.6656 76.4474 89.7798 75.7435L87.5813 75.1978L89.8424 75.3243C89.937 74.6325 89.99 73.9274 89.9987 73.2117L87.746 73L89.9987 72.7883C89.99 72.0726 89.937 71.3675 89.8424 70.6757L87.5813 70.8022L89.7798 70.2565C89.6656 69.5526 89.5081 68.8631 89.3102 68.1909L87.0909 68.6535L89.1853 67.7855C88.9675 67.1088 88.7084 66.4506 88.4109 65.8139L86.2857 66.602L88.2267 65.4319C87.9106 64.7971 87.5559 64.1849 87.1658 63.5983L85.1837 64.6933L86.9268 63.2485C86.5204 62.6691 86.0788 62.1163 85.605 61.5931L83.8096 62.9702L85.3169 61.2828C84.8299 60.771 84.3114 60.2895 83.7644 59.8415L82.194 61.4711L83.4334 59.5772C82.877 59.1441 82.2929 58.7448 81.6842 58.3824L80.373 60.2296L81.3173 58.1701C80.7039 57.8253 80.0669 57.5175 79.4094 57.2497L78.3873 59.2733L79.0145 57.0946C78.3582 56.8463 77.6824 56.6374 76.9902 56.4709L76.2813 58.6237L76.5766 56.3769C75.8926 56.2304 75.1934 56.1251 74.4816 56.0637L74.102 58.2952L74.0592 56.0325Z" fill="white"/>
</svg>
