<svg width="146" height="146" viewBox="0 0 146 146" fill="none" xmlns="http://www.w3.org/2000/svg">
<path d="M73 0L74.102 58.2952L83.8801 0.815353L76.2813 58.6237L94.5171 3.24319L78.3873 59.2733L104.674 7.22927L80.373 60.2296L114.122 12.6846L82.194 61.4711L122.653 19.4872L83.8096 62.9702L130.074 27.4852L85.1837 64.6933L136.22 36.5L86.2857 66.602L140.954 46.3301L87.0909 68.6535L144.17 56.756L87.5813 70.8022L145.796 67.5447L87.746 73L145.796 78.4553L87.5813 75.1978L144.17 89.244L87.0909 77.3465L140.954 99.6699L86.2857 79.398L136.22 109.5L85.1837 81.3067L130.074 118.515L83.8096 83.0298L122.653 126.513L82.194 84.5289L114.122 133.315L80.373 85.7704L104.674 138.771L78.3873 86.7267L94.5171 142.757L76.2813 87.3763L83.8801 145.185L74.102 87.7048L73 146L71.898 87.7048L62.1199 145.185L69.7187 87.3763L51.4829 142.757L67.6127 86.7267L41.3265 138.771L65.627 85.7704L31.8776 133.315L63.806 84.5289L23.3474 126.513L62.1904 83.0298L15.9263 118.515L60.8163 81.3067L9.78014 109.5L59.7143 79.398L5.04622 99.6699L58.9091 77.3465L1.83026 89.244L58.4187 75.1978L0.204124 78.4553L58.254 73L0.204124 67.5447L58.4187 70.8022L1.83026 56.756L58.9091 68.6535L5.04622 46.3301L59.7143 66.602L9.78014 36.5L60.8163 64.6933L15.9263 27.4852L62.1904 62.9702L23.3474 19.4872L63.806 61.4711L31.8776 12.6846L65.627 60.2296L41.3265 7.22927L67.6127 59.2733L51.4829 3.24319L69.7187 58.6237L62.1199 0.815353L71.898 58.2952L73 0Z" fill="#D9D9D9"/>
</svg>
