<svg width="2481" height="2481" viewBox="0 0 2481 2481" fill="none" xmlns="http://www.w3.org/2000/svg">
<path d="M656.227 2289.35L652.777 2287.36L730.19 2153.22L733.639 2155.21L656.227 2289.35ZM709.877 2141.49L716.776 2145.48L714.785 2148.92L697.731 2139.08C696.453 2138.34 695.512 2138.06 694.908 2138.22C694.175 2138.31 693.404 2139.05 692.593 2140.46L665.72 2187.03C663.287 2191.24 662.566 2195 663.558 2198.3C664.423 2201.52 667.218 2204.49 671.945 2207.22L681.91 2212.97L680.362 2215.66L673.655 2211.79C667.012 2207.95 662.619 2204.05 660.477 2200.09C658.134 2196.19 658.51 2191.55 661.607 2186.18L683.282 2148.63C686.747 2142.62 690.596 2139.05 694.827 2137.92C698.984 2136.91 704.001 2138.1 709.877 2141.49ZM675.527 2210.31L681.468 2213.74L679.919 2216.42L670.53 2211C665.803 2208.28 661.827 2207.34 658.604 2208.21C655.179 2209.13 652.102 2211.95 649.374 2216.68L629.247 2251.55C626.372 2256.53 625.467 2260.61 626.533 2263.78C627.397 2267 630.193 2269.98 634.92 2272.71L641.052 2276.25L639.172 2279.5L633.04 2275.97C627.163 2272.57 623.684 2268.86 622.604 2264.83C621.322 2260.86 622.082 2256.44 624.883 2251.59L647.112 2213.07C649.84 2208.34 653.373 2205.62 657.712 2204.88C661.924 2204.08 667.862 2205.89 675.527 2210.31ZM691.609 2223.17L666.505 2208.68L668.496 2205.23L693.599 2219.72L691.609 2223.17ZM731.265 2158.44L712.103 2147.38L714.093 2143.93L733.256 2154.99L731.265 2158.44ZM655.46 2288.9L636.106 2277.73L637.986 2274.48L657.34 2285.65L655.46 2288.9Z" fill="white"/>
<path d="M535.68 2213.06L532.383 2210.83L619.269 2082.62L622.566 2084.85L535.68 2213.06ZM659.013 2109.55L676.413 2121.34L674.179 2124.64L643.958 2104.16C642.737 2103.33 641.819 2102.98 641.205 2103.1C640.468 2103.13 639.645 2103.82 638.735 2105.16L604.601 2155.53C601.539 2160.05 600.384 2163.99 601.136 2167.35C601.683 2170.75 604.215 2173.98 608.733 2177.04L629.246 2190.94L627.136 2194.06L609.737 2182.26C606.196 2179.86 603.37 2177.59 601.259 2175.45C599.148 2173.31 597.773 2171.13 597.135 2168.91C596.376 2166.62 596.435 2164.16 597.314 2161.55C598.071 2158.86 599.608 2155.8 601.925 2152.38L628.239 2113.55C630.556 2110.13 632.867 2107.51 635.171 2105.69C637.271 2103.91 639.529 2102.94 641.944 2102.8C644.236 2102.57 646.769 2103.04 649.542 2104.2C652.315 2105.37 655.472 2107.15 659.013 2109.55ZM592.091 2251.29L588.794 2249.05L675.68 2120.85L678.977 2123.08L592.091 2251.29Z" fill="white"/>
<path d="M511.496 2194.51L508.365 2192.05L604.086 2070.29L607.217 2072.75L511.496 2194.51ZM588.606 2058.12L605.129 2071.11L602.668 2074.24L573.969 2051.68C572.81 2050.77 571.919 2050.35 571.298 2050.42C570.56 2050.41 569.69 2051.04 568.688 2052.31L533.544 2097.01C530.171 2101.3 528.741 2105.15 529.254 2108.56C529.559 2111.99 531.857 2115.39 536.148 2118.76L555.628 2134.08L553.167 2137.21L536.643 2124.22C533.28 2121.57 530.622 2119.11 528.667 2116.82C526.713 2114.53 525.541 2112.2 525.153 2109.84C524.557 2107.49 524.79 2105.05 525.851 2102.5C526.796 2099.87 528.545 2096.93 531.097 2093.68L557.626 2059.94C560.178 2056.69 562.668 2054.24 565.096 2052.59C567.317 2050.95 569.637 2050.15 572.056 2050.18C574.359 2050.11 576.852 2050.76 579.536 2052.12C582.22 2053.48 585.243 2055.48 588.606 2058.12ZM510.278 2193.55L478.97 2168.94L481.295 2165.98L512.603 2190.59L510.278 2193.55Z" fill="white"/>
<path d="M457.763 2150.93L454.773 2148.3L557.093 2032.04L560.082 2034.67L457.763 2150.93ZM455.77 2149.18L429.528 2126.09L432.012 2123.26L458.254 2146.36L455.77 2149.18ZM505.82 2093.32L484.062 2074.17L486.693 2071.18L508.451 2090.33L505.82 2093.32ZM555.458 2035.91L529.216 2012.81L531.847 2009.82L558.089 2032.92L555.458 2035.91Z" fill="white"/>
<path d="M410.297 2107.97L407.46 2105.18L516.131 1994.83L518.969 1997.63L410.297 2107.97ZM454.589 2028.31L469.407 2042.91L466.768 2045.59L440.915 2020.13C439.759 2018.99 438.868 2018.42 438.242 2018.43C437.408 2018.43 436.422 2019.01 435.283 2020.17L392.591 2063.52C388.865 2067.3 387.016 2070.97 387.043 2074.51C386.965 2077.96 388.87 2081.59 392.759 2085.42L410.414 2102.81L407.775 2105.49L392.957 2090.9C389.804 2087.79 387.384 2084.99 385.696 2082.5C384.008 2080.01 383.051 2077.62 382.825 2075.33C382.494 2072.93 383.048 2070.48 384.489 2067.96C385.827 2065.55 387.945 2062.88 390.842 2059.94L423.599 2026.67C426.6 2023.63 429.295 2021.41 431.684 2020.04C434.072 2018.67 436.467 2018.13 438.868 2018.42C441.164 2018.61 443.57 2019.53 446.086 2021.18C448.602 2022.83 451.436 2025.21 454.589 2028.31Z" fill="white"/>
<path d="M331.004 2024.69L328.49 2021.89L443.709 1918.39L446.223 1921.19L331.004 2024.69ZM360.277 2057.28L357.616 2054.31L472.835 1950.82L475.496 1953.78L360.277 2057.28ZM371.824 1988.02L370.493 1986.54L429.546 1989.7L430.876 1991.19L371.824 1988.02Z" fill="white"/>
<path d="M258.655 1932.04L256.297 1928.83L381.124 1837.15L383.482 1840.36L258.655 1932.04ZM284.062 1966.63L281.705 1963.42L406.532 1871.75L408.889 1874.96L284.062 1966.63ZM282.228 1964.13L257.869 1930.97L260.901 1928.74L285.26 1961.91L282.228 1964.13Z" fill="white"/>
<path d="M240.534 1905.42L238.376 1902.07L368.552 1818.17L370.71 1821.52L240.534 1905.42ZM301.177 1837.38L312.444 1854.86L309.283 1856.9L289.625 1826.4C288.746 1825.04 288.001 1824.29 287.389 1824.16C286.573 1823.98 285.484 1824.33 284.12 1825.21L232.979 1858.17C228.516 1861.05 225.91 1864.22 225.161 1867.69C224.332 1871.03 225.395 1874.99 228.352 1879.58L241.777 1900.41L238.616 1902.45L227.348 1884.97C224.951 1881.25 223.201 1877.99 222.099 1875.19C220.997 1872.39 220.586 1869.85 220.867 1867.56C221.068 1865.15 222.146 1862.87 224.102 1860.74C225.934 1858.68 228.586 1856.53 232.057 1854.29L271.296 1829C274.891 1826.68 278.005 1825.11 280.636 1824.3C283.267 1823.48 285.722 1823.47 288.001 1824.29C290.199 1824.98 292.346 1826.4 294.44 1828.56C296.534 1830.72 298.78 1833.66 301.177 1837.38Z" fill="white"/>
<path d="M203.212 1845.53L201.245 1842.07L335.917 1765.59L337.884 1769.05L203.212 1845.53ZM201.901 1843.23L184.637 1812.83L187.908 1810.97L205.171 1841.37L201.901 1843.23ZM267.448 1806.76L253.135 1781.56L256.598 1779.59L270.911 1804.8L267.448 1806.76ZM333.11 1768.71L315.846 1738.31L319.309 1736.35L336.573 1766.74L333.11 1768.71Z" fill="white"/>
<path d="M152.773 1749.7L151.115 1746.32L290.131 1678.05L291.789 1681.43L152.773 1749.7ZM167.988 1780.68L152.578 1749.3L155.954 1747.64L171.364 1779.02L167.988 1780.68ZM308.124 1721.72C301.983 1722.6 293.554 1725.17 282.837 1729.45C271.923 1733.66 259.118 1739.37 244.422 1746.59L169.353 1783.46L167.597 1779.88L242.666 1743.02C257.362 1735.8 270.135 1730.02 280.984 1725.68C291.636 1721.27 300.329 1718.73 307.062 1718.05L308.124 1721.72ZM310.744 1729.06L281.875 1670.27L285.45 1668.52L314.318 1727.3L310.744 1729.06ZM312.531 1728.18L310.873 1724.8L343.244 1708.91L344.902 1712.28L312.531 1728.18ZM285.418 1672.97L283.663 1669.4L316.034 1653.5L317.789 1657.07L285.418 1672.97Z" fill="white"/>
<path d="M111.759 1657.2L135.369 1627.35L140.011 1627.65L115.866 1657.95L111.759 1657.2ZM128.916 1700.38L132.087 1696.98L170.654 1702.37L166.497 1705.69L128.916 1700.38ZM112.331 1658.64L111.759 1657.2L112.17 1657.04L156.404 1663.51L157.435 1661.91L265.381 1619.02L266.77 1622.51L158.824 1665.41L112.331 1658.64ZM128.344 1698.94L157.435 1661.91L265.381 1619.02L266.77 1622.51L159.852 1665L131.955 1700.84L128.916 1700.38L128.344 1698.94ZM166.497 1705.69L165.108 1702.19L280.251 1656.44L281.64 1659.93L166.497 1705.69ZM136.758 1630.84L135.369 1627.35L250.512 1581.6L251.901 1585.09L136.758 1630.84Z" fill="white"/>
<path d="M99.9273 1616.57L98.724 1612.77L246.36 1565.98L247.563 1569.77L99.9273 1616.57ZM99.1251 1614.04L88.5628 1580.71L92.1482 1579.58L102.711 1612.9L99.1251 1614.04ZM170.824 1592.01L162.066 1564.38L165.863 1563.17L174.62 1590.8L170.824 1592.01ZM242.965 1568.44L232.402 1535.12L236.199 1533.92L246.761 1567.24L242.965 1568.44Z" fill="white"/>
<path d="M77.1429 1538.53L76.2035 1534.89L226.17 1496.21L227.11 1499.85L77.1429 1538.53ZM78.1375 1542.39L69.4068 1508.54L73.0489 1507.6L81.7796 1541.45L78.1375 1542.39ZM83.9396 1564.88L75.2089 1531.03L78.8509 1530.09L87.5816 1563.94L83.9396 1564.88Z" fill="white"/>
<path d="M57.4648 1448.11L56.8357 1444.18L209.766 1419.72L210.395 1423.65L57.4648 1448.11ZM206.062 1396.56L207.32 1404.43L203.388 1405.05L200.277 1385.61C200.044 1384.15 199.674 1383.24 199.168 1382.87C198.637 1382.36 197.571 1382.23 195.969 1382.49L142.88 1390.98C138.074 1391.75 134.704 1393.56 132.769 1396.41C130.812 1399.11 130.264 1403.16 131.126 1408.55L132.943 1419.91L129.885 1420.4L128.661 1412.75C127.45 1405.18 127.707 1399.31 129.431 1395.15C130.987 1390.87 134.823 1388.24 140.941 1387.26L183.761 1380.41C190.607 1379.31 195.803 1380.05 199.351 1382.62C202.753 1385.21 204.99 1389.86 206.062 1396.56ZM130.986 1413.27L132.069 1420.05L129.011 1420.54L127.298 1409.83C126.436 1404.44 124.654 1400.77 121.951 1398.81C119.079 1396.73 114.948 1396.12 109.559 1396.98L69.7971 1403.34C64.1168 1404.25 60.3824 1406.12 58.5937 1408.95C56.6361 1411.65 56.0883 1415.69 56.9503 1421.08L58.0686 1428.07L54.3545 1428.67L53.2363 1421.68C52.1646 1414.98 52.8522 1409.94 55.2993 1406.56C57.5773 1403.06 61.4837 1400.87 67.0183 1399.98L110.931 1392.96C116.32 1392.09 120.666 1393.12 123.969 1396.02C127.249 1398.79 129.588 1404.54 130.986 1413.27ZM131.142 1433.86L126.564 1405.24L130.497 1404.61L135.075 1433.23L131.142 1433.86ZM206.393 1423.84L202.898 1402L206.831 1401.37L210.325 1423.21L206.393 1423.84ZM57.325 1447.24L53.7954 1425.17L57.5094 1424.58L61.039 1446.65L57.325 1447.24Z" fill="white"/>
<path d="M40.6964 1306.45L40.3526 1302.48L194.649 1289.11L194.993 1293.08L40.6964 1306.45ZM198.794 1336.94L200.608 1357.88L196.64 1358.23L193.489 1321.86C193.362 1320.39 193.059 1319.45 192.58 1319.05C192.088 1318.5 191.034 1318.29 189.417 1318.43L128.801 1323.68C123.364 1324.16 119.578 1325.74 117.443 1328.44C115.148 1331.01 114.237 1335.01 114.708 1340.45L116.847 1365.14L113.1 1365.46L111.285 1344.52C110.916 1340.26 110.898 1336.64 111.231 1333.65C111.564 1330.66 112.389 1328.22 113.706 1326.32C115.01 1324.29 116.953 1322.79 119.534 1321.82C122.103 1320.71 125.444 1319.98 129.559 1319.62L176.289 1315.57C180.403 1315.22 183.895 1315.36 186.763 1316C189.472 1316.5 191.644 1317.65 193.279 1319.43C194.901 1321.07 196.134 1323.33 196.976 1326.22C197.818 1329.1 198.424 1332.68 198.794 1336.94ZM46.5787 1374.34L46.2349 1370.37L200.532 1357L200.875 1360.97L46.5787 1374.34Z" fill="white"/>
<path d="M39.8541 1275.98L39.7913 1271.99L194.647 1269.55L194.71 1273.53L39.8541 1275.98ZM194.336 1249.86L194.668 1270.88L190.686 1270.94L190.11 1234.44C190.087 1232.97 189.851 1232.01 189.401 1231.58C188.949 1230.99 187.912 1230.71 186.29 1230.74L129.436 1231.64C123.979 1231.72 120.091 1233.04 117.771 1235.58C115.301 1237.98 114.109 1241.91 114.195 1247.37L114.585 1272.14L110.603 1272.2L110.272 1251.19C110.204 1246.91 110.442 1243.29 110.986 1240.33C111.529 1237.38 112.598 1235 114.193 1233.2C115.637 1231.26 117.681 1229.9 120.324 1229.12C122.965 1228.2 126.35 1227.7 130.479 1227.64L173.396 1226.96C177.526 1226.89 180.999 1227.28 183.815 1228.12C186.481 1228.82 188.567 1230.11 190.072 1232.01C191.574 1233.75 192.644 1236.1 193.281 1239.04C193.917 1241.98 194.269 1245.59 194.336 1249.86ZM39.8296 1274.43L39.2018 1234.61L42.9626 1234.55L43.5904 1274.37L39.8296 1274.43Z" fill="white"/>
<path d="M39.8071 1206.8L39.965 1202.82L194.718 1208.96L194.56 1212.94L39.8071 1206.8ZM39.9124 1204.14L41.2987 1169.21L45.057 1169.36L43.6706 1204.29L39.9124 1204.14ZM114.831 1207.78L115.98 1178.82L119.959 1178.98L118.81 1207.94L114.831 1207.78ZM190.686 1210.13L192.072 1175.2L196.052 1175.36L194.665 1210.29L190.686 1210.13Z" fill="white"/>
<path d="M43.2372 1142.87L43.6178 1138.9L197.784 1153.7L197.403 1157.67L43.2372 1142.87ZM132.997 1127.04L131.01 1147.74L127.266 1147.38L130.733 1111.26C130.888 1109.64 130.767 1108.6 130.368 1108.11C129.838 1107.47 128.765 1107.07 127.149 1106.91L66.5843 1101.1C61.2986 1100.59 57.2879 1101.47 54.5523 1103.72C51.8307 1105.83 50.2092 1109.6 49.6876 1115.04L47.3195 1139.7L43.5755 1139.34L45.563 1118.64C45.9859 1114.24 46.6319 1110.59 47.5011 1107.71C48.3704 1104.83 49.6237 1102.58 51.2611 1100.96C52.9126 1099.19 55.1684 1098.08 58.0285 1097.61C60.7418 1097.13 64.154 1097.09 68.2651 1097.48L114.735 1101.94C118.993 1102.35 122.408 1103.05 124.981 1104.04C127.553 1105.03 129.482 1106.55 130.767 1108.6C132.066 1110.5 132.868 1112.95 133.173 1115.94C133.479 1118.93 133.42 1122.63 132.997 1127.04Z" fill="white"/>
<path d="M57.9089 1028.81L58.4968 1025.1L211.468 1049.3L210.88 1053.02L57.9089 1028.81ZM51.0624 1072.08L51.6848 1068.15L204.656 1092.35L204.034 1096.28L51.0624 1072.08ZM112.105 1037.39L112.416 1035.42L147.183 1083.26L146.871 1085.22L112.105 1037.39Z" fill="white"/>
<path d="M84.2254 914.242L85.2312 910.389L235.086 949.502L234.08 953.356L84.2254 914.242ZM73.3855 955.773L74.3913 951.92L224.246 991.033L223.24 994.887L73.3855 955.773ZM74.1678 952.776L84.5607 912.958L88.2 913.908L77.8071 953.726L74.1678 952.776Z" fill="white"/>
<path d="M93.4624 883.399L94.7009 879.614L241.896 927.777L240.658 931.562L93.4624 883.399ZM184.512 887.583L178.044 907.35L174.469 906.18L185.753 871.694C186.258 870.152 186.369 869.102 186.086 868.544C185.709 867.8 184.749 867.175 183.207 866.671L125.38 847.749C120.333 846.098 116.229 846.074 113.066 847.677C109.949 849.141 107.541 852.466 105.844 857.653L98.1381 881.204L94.5633 880.034L101.031 860.268C102.407 856.062 103.834 852.649 105.312 850.029C106.79 847.409 108.506 845.487 110.458 844.263C112.456 842.9 114.902 842.303 117.795 842.474C120.547 842.598 123.886 843.303 127.811 844.587L172.18 859.105C176.246 860.435 179.425 861.864 181.719 863.39C184.013 864.917 185.563 866.821 186.369 869.102C187.22 871.243 187.468 873.807 187.111 876.794C186.754 879.781 185.888 883.378 184.512 887.583Z" fill="white"/>
<path d="M116.427 816.674L117.875 812.964L262.142 869.297L260.693 873.007L116.427 816.674ZM117.393 814.201L130.108 781.638L133.611 783.006L120.896 815.569L117.393 814.201ZM187.017 842.1L197.56 815.102L201.269 816.551L190.727 843.549L187.017 842.1ZM257.949 869.085L270.664 836.522L274.374 837.971L261.659 870.534L257.949 869.085Z" fill="white"/>
<path d="M159.03 717.106L160.606 713.691L301.235 778.573L299.659 781.988L159.03 717.106ZM144.571 748.446L159.216 716.704L162.631 718.28L147.986 750.022L144.571 748.446ZM278.679 820.067C274.125 815.854 266.81 810.936 256.735 805.312C246.586 799.493 234.079 793.154 219.213 786.295L143.273 751.258L144.942 747.642L220.881 782.679C235.748 789.538 248.286 795.81 258.496 801.495C268.633 806.985 276.087 812.13 280.858 816.93L278.679 820.067ZM274.632 826.727L302.068 767.262L305.684 768.93L278.248 828.396L274.632 826.727ZM276.44 827.562L278.016 824.146L310.762 839.255L309.186 842.67L276.44 827.562ZM302.207 771.712L303.876 768.096L336.622 783.204L334.954 786.82L302.207 771.712Z" fill="white"/>
<path d="M204.977 626.962L243.037 626.47L245.732 630.262L206.984 630.622L204.977 626.962ZM182.273 667.499L186.914 667.816L207.042 701.152L201.845 700.017L182.273 667.499ZM204.22 628.313L204.977 626.962L205.363 627.178L228.225 665.595L230.116 665.387L331.46 722.147L329.622 725.429L228.278 668.668L204.22 628.313ZM183.03 666.148L230.116 665.387L331.46 722.147L329.622 725.429L229.244 669.209L183.832 670.148L182.273 667.499L183.03 666.148ZM201.845 700.017L203.683 696.735L311.783 757.279L309.945 760.561L201.845 700.017ZM241.199 629.752L243.037 626.47L351.137 687.015L349.299 690.296L241.199 629.752Z" fill="white"/>
<path d="M229.065 592.161L231.254 588.834L360.646 673.945L358.457 677.272L229.065 592.161ZM230.524 589.943L249.735 560.737L252.877 562.804L233.667 592.01L230.524 589.943ZM292.822 631.715L308.75 607.501L312.077 609.689L296.149 633.904L292.822 631.715ZM356.589 672.865L375.8 643.66L379.127 645.848L359.916 675.054L356.589 672.865Z" fill="white"/>
<path d="M275.283 525.282L277.518 522.257L402.08 614.292L399.845 617.317L275.283 525.282ZM272.916 528.485L293.69 500.369L296.715 502.605L275.941 530.72L272.916 528.485ZM259.111 547.169L279.885 519.054L282.91 521.289L262.136 549.404L259.111 547.169Z" fill="white"/>
<path d="M333.068 453.009L335.724 450.042L451.117 553.341L448.461 556.308L333.068 453.009ZM466.76 535.867L461.447 541.802L458.48 539.145L471.614 524.474C472.597 523.375 473.072 522.513 473.038 521.888C473.101 521.154 472.529 520.245 471.32 519.163L431.262 483.303C427.635 480.057 424.107 478.581 420.676 478.875C417.343 479.059 413.857 481.184 410.217 485.251L402.544 493.823L400.236 491.757L405.401 485.987C410.516 480.272 415.232 476.773 419.549 475.49C423.853 473.999 428.314 475.319 432.929 479.451L465.239 508.374C470.405 512.998 473.108 517.497 473.35 521.871C473.482 526.146 471.285 530.812 466.76 535.867ZM406.459 488.122L401.884 493.232L399.576 491.166L406.807 483.089C410.447 479.023 412.175 475.323 411.991 471.991C411.795 468.45 409.664 464.86 405.598 461.22L375.596 434.362C371.31 430.525 367.506 428.803 364.185 429.196C360.853 429.38 357.367 431.505 353.727 435.571L349.004 440.847L346.202 438.338L350.924 433.063C355.45 428.007 359.795 425.365 363.961 425.134C368.115 424.696 372.28 426.346 376.456 430.084L409.59 459.746C413.656 463.386 415.602 467.404 415.427 471.801C415.351 476.088 412.362 481.528 406.459 488.122ZM390.575 501.222L409.906 479.627L412.873 482.283L393.542 503.878L390.575 501.222ZM445.789 553.322L460.546 536.838L463.513 539.494L448.756 555.978L445.789 553.322ZM333.658 452.35L348.563 435.7L351.365 438.209L336.461 454.859L333.658 452.35Z" fill="white"/>
<path d="M432.474 350.689L435.338 347.921L542.98 459.274L540.117 462.042L432.474 350.689ZM508.461 492.643L493.349 507.251L490.581 504.388L516.828 479.015C517.888 477.99 518.424 477.165 518.435 476.539C518.551 475.811 518.046 474.863 516.918 473.697L474.63 429.951C470.837 426.027 467.219 424.088 463.776 424.134C460.336 423.972 456.654 425.787 452.731 429.58L434.914 446.803L432.3 444.099L447.412 429.49C450.488 426.517 453.291 424.218 455.822 422.591C458.353 420.965 460.767 420.067 463.065 419.898C465.469 419.625 467.859 420.187 470.234 421.584C472.716 422.878 475.392 425.009 478.262 427.979L510.862 461.702C513.733 464.672 515.824 467.472 517.135 470.102C518.45 472.523 518.931 474.93 518.578 477.324C518.33 479.614 517.351 481.997 515.64 484.471C513.929 486.946 511.536 489.67 508.461 492.643ZM383.479 398.052L386.343 395.284L493.985 506.636L491.122 509.404L383.479 398.052Z" fill="white"/>
<path d="M455.597 330.828L458.648 328.269L558.16 446.944L555.108 449.503L455.597 330.828ZM573.248 434.291L557.143 447.797L554.584 444.745L582.557 421.289C583.687 420.341 584.28 419.555 584.334 418.932C584.502 418.214 584.065 417.233 583.022 415.99L546.487 372.419C542.981 368.238 539.509 366.048 536.071 365.851C532.651 365.446 528.851 366.997 524.669 370.503L505.681 386.425L503.122 383.373L519.228 369.868C522.506 367.12 525.464 365.024 528.104 363.581C530.743 362.137 533.262 361.468 535.661 361.574C538.078 361.473 540.422 362.202 542.693 363.763C545.077 365.228 547.596 367.544 550.25 370.708L577.829 403.598C580.482 406.763 582.371 409.703 583.493 412.419C584.634 414.927 584.943 417.363 584.422 419.725C584.013 421.992 582.868 424.3 580.987 426.648C579.106 428.995 576.526 431.543 573.248 434.291ZM456.783 329.833L487.3 304.244L489.716 307.126L459.2 332.715L456.783 329.833Z" fill="white"/>
<path d="M509.27 287.183L512.459 284.797L605.243 408.803L602.054 411.189L509.27 287.183ZM511.396 285.593L539.386 264.65L541.639 267.662L513.65 288.604L511.396 285.593ZM555.799 346.045L579.005 328.681L581.391 331.87L558.184 349.233L555.799 346.045ZM601.794 406.41L629.784 385.467L632.17 388.656L604.18 409.598L601.794 406.41Z" fill="white"/>
<path d="M561.06 249.547L564.377 247.344L650.069 376.352L646.752 378.555L561.06 249.547ZM629.932 309.248L612.608 320.755L610.527 317.622L640.752 297.545C642.103 296.648 642.841 295.892 642.965 295.279C643.13 294.461 642.764 293.376 641.866 292.024L608.201 241.343C605.263 236.92 602.056 234.357 598.58 233.656C595.227 232.873 591.277 233.991 586.731 237.011L566.09 250.722L564.009 247.589L581.333 236.082C585.019 233.633 588.254 231.839 591.037 230.698C593.821 229.557 596.358 229.111 598.649 229.361C601.062 229.528 603.351 230.575 605.516 232.502C607.599 234.305 609.784 236.927 612.069 240.367L637.899 279.254C640.265 282.817 641.876 285.909 642.731 288.528C643.585 291.148 643.622 293.602 642.841 295.892C642.183 298.1 640.788 300.266 638.657 302.389C636.527 304.513 633.618 306.799 629.932 309.248Z" fill="white"/>
<path d="M658.851 189.038L662.106 187.152L739.744 321.162L736.49 323.047L658.851 189.038ZM620.946 210.999L624.392 209.002L702.03 343.011L698.584 345.008L620.946 210.999ZM686.357 236.516L688.08 235.517L672.86 292.662L671.137 293.66L686.357 236.516Z" fill="white"/>
<path d="M764.379 137.248L768.004 135.6L832.105 276.587L828.479 278.235L764.379 137.248ZM725.305 155.013L728.931 153.365L793.031 294.352L789.406 296L725.305 155.013ZM728.125 153.731L765.587 136.699L767.144 140.123L729.682 157.155L728.125 153.731Z" fill="white"/>
<path d="M794.145 124.976L797.864 123.551L853.263 268.179L849.544 269.603L794.145 124.976ZM848.291 198.295L828.87 205.734L827.525 202.222L861.409 189.243C862.924 188.662 863.809 188.086 864.064 187.515C864.404 186.753 864.284 185.614 863.703 184.099L841.94 127.281C840.04 122.322 837.471 119.121 834.233 117.676C831.132 116.179 827.033 116.406 821.937 118.358L798.797 127.222L797.451 123.709L816.873 116.27C821.005 114.687 824.554 113.644 827.52 113.14C830.486 112.635 833.059 112.755 835.239 113.5C837.557 114.191 839.562 115.714 841.253 118.067C842.892 120.282 844.45 123.319 845.927 127.175L862.625 170.77C864.156 174.765 865.051 178.133 865.312 180.877C865.573 183.62 865.072 186.023 863.809 188.086C862.684 190.097 860.849 191.905 858.305 193.511C855.762 195.117 852.424 196.712 848.291 198.295Z" fill="white"/>
<path d="M860.419 100.742L864.212 99.528L911.422 247.032L907.629 248.246L860.419 100.742ZM862.948 99.9327L896.241 89.2766L897.388 92.8589L864.094 103.515L862.948 99.9327ZM885.179 171.569L912.783 162.734L913.997 166.527L886.393 175.362L885.179 171.569ZM908.944 243.644L942.238 232.987L943.452 236.78L910.158 247.436L908.944 243.644Z" fill="white"/>
<path d="M964.569 71.0497L968.214 70.1201L1006.49 220.189L1002.85 221.119L964.569 71.0497ZM931.125 79.5807L964.998 70.9403L965.928 74.5849L932.055 83.2252L931.125 79.5807ZM960.064 228.836C960.464 222.645 959.671 213.866 957.685 202.5C955.805 190.954 952.842 177.248 948.795 161.384L928.124 80.3463L931.983 79.362L952.654 160.399C956.701 176.264 959.735 189.951 961.758 201.461C963.887 212.791 964.592 221.821 963.873 228.55L960.064 228.836ZM952.342 229.893L1015.8 213.706L1016.78 217.565L953.326 233.751L952.342 229.893ZM952.834 231.822L956.479 230.892L965.393 265.837L961.748 266.767L952.834 231.822ZM1012.43 216.619L1016.29 215.635L1025.21 250.58L1021.35 251.564L1012.43 216.619Z" fill="white"/>
<path d="M1063.51 49.8943L1087.88 79.1301L1086.64 83.612L1061.93 53.7599L1063.51 49.8943ZM1017.73 57.8226L1020.41 61.6249L1007.22 98.2642L1004.82 93.5144L1017.73 57.8226ZM1061.98 50.1585L1063.51 49.8943L1063.59 50.3303L1048.17 92.2942L1049.53 93.6315L1069.35 208.084L1065.64 208.726L1045.82 94.2733L1061.98 50.1585ZM1019.26 57.5583L1049.53 93.6315L1069.35 208.084L1065.64 208.726L1046.01 95.3633L1016.66 60.7029L1017.73 57.8226L1019.26 57.5583ZM1004.82 93.5144L1008.53 92.8726L1029.67 214.955L1025.97 215.597L1004.82 93.5144ZM1084.18 79.7719L1087.88 79.1301L1109.03 201.213L1105.32 201.855L1084.18 79.7719Z" fill="white"/>
<path d="M1105.71 46.6561L1109.67 46.2577L1125.17 200.355L1121.2 200.754L1105.71 46.6561ZM1108.35 46.3905L1143.14 42.8934L1143.51 46.6357L1108.73 50.1329L1108.35 46.3905ZM1115.2 121.084L1144.03 118.185L1144.43 122.147L1115.59 125.047L1115.2 121.084ZM1123.45 196.526L1158.23 193.029L1158.63 196.991L1123.85 200.488L1123.45 196.526Z" fill="white"/>
<path d="M1186.76 40.3758L1190.52 40.2041L1197.59 194.917L1193.84 195.089L1186.76 40.3758ZM1182.79 40.5577L1217.71 38.9612L1217.88 42.7185L1182.96 44.315L1182.79 40.5577ZM1159.58 41.6187L1194.5 40.0222L1194.67 43.7795L1159.75 45.376L1159.58 41.6187Z" fill="white"/>
<path d="M1279.29 39.676L1283.27 39.8676L1275.82 194.563L1271.84 194.371L1279.29 39.676ZM1299.25 195.691L1291.29 195.308L1291.48 191.33L1311.15 192.277C1312.62 192.348 1313.59 192.173 1314.06 191.753C1314.67 191.339 1315.01 190.322 1315.09 188.701L1317.68 135C1317.91 130.138 1316.83 126.468 1314.44 123.99C1312.2 121.52 1308.35 120.153 1302.9 119.89L1291.41 119.337L1291.56 116.243L1299.29 116.616C1306.95 116.985 1312.64 118.44 1316.36 120.982C1320.23 123.383 1322.02 127.678 1321.72 133.866L1319.63 177.18C1319.3 184.105 1317.51 189.04 1314.27 191.984C1311.03 194.782 1306.02 196.018 1299.25 195.691ZM1298.3 118.783L1291.45 118.453L1291.6 115.359L1302.43 115.881C1307.88 116.143 1311.84 115.153 1314.31 112.909C1316.93 110.525 1318.38 106.607 1318.64 101.156L1320.58 60.9353C1320.85 55.1895 1319.79 51.1513 1317.4 48.8207C1315.15 46.3499 1311.3 44.9833 1305.85 44.7207L1298.78 44.3802L1298.96 40.6233L1306.03 40.9638C1312.81 41.2902 1317.6 42.9977 1320.41 46.0862C1323.37 49.0344 1324.71 53.3078 1324.44 58.9063L1322.3 103.326C1322.04 108.777 1320.15 112.821 1316.62 115.457C1313.25 118.1 1307.14 119.209 1298.3 118.783ZM1278.12 114.71L1307.07 116.104L1306.88 120.082L1277.93 118.688L1278.12 114.71ZM1272.48 190.415L1294.58 191.479L1294.39 195.457L1272.29 194.393L1272.48 190.415ZM1280.18 39.7186L1302.5 40.7936L1302.32 44.5505L1280 43.4755L1280.18 39.7186Z" fill="white"/>
<path d="M1421.39 52.3449L1425.34 52.8229L1406.75 206.578L1402.8 206.1L1421.39 52.3449ZM1359.09 200.816L1338.22 198.293L1338.7 194.339L1374.94 198.721C1376.41 198.898 1377.39 198.793 1377.88 198.407C1378.52 198.039 1378.93 197.049 1379.13 195.438L1386.43 135.034C1387.09 129.616 1386.31 125.585 1384.1 122.942C1382.06 120.169 1378.33 118.455 1372.91 117.8L1348.31 114.826L1348.76 111.092L1369.63 113.615C1373.88 114.128 1377.43 114.855 1380.29 115.794C1383.15 116.734 1385.36 118.042 1386.95 119.719C1388.67 121.414 1389.74 123.623 1390.16 126.347C1390.72 129.089 1390.75 132.511 1390.25 136.611L1384.62 183.177C1384.13 187.277 1383.27 190.665 1382.06 193.341C1381.01 195.888 1379.44 197.779 1377.36 199.013C1375.42 200.265 1372.96 201.007 1369.96 201.238C1366.96 201.47 1363.34 201.329 1359.09 200.816ZM1353.74 44.1662L1357.69 44.6442L1339.1 198.399L1335.15 197.921L1353.74 44.1662Z" fill="white"/>
<path d="M1451.38 57.7751L1455.29 58.531L1425.89 210.59L1421.98 209.834L1451.38 57.7751ZM1445.23 214.328L1424.59 210.338L1425.35 206.428L1461.19 213.357C1462.64 213.637 1463.62 213.602 1464.14 213.252C1464.8 212.929 1465.29 211.971 1465.6 210.378L1476.39 154.551C1477.42 149.193 1476.94 145.117 1474.92 142.324C1473.08 139.414 1469.48 137.441 1464.12 136.405L1439.79 131.702L1440.55 127.792L1461.19 131.781C1465.39 132.593 1468.88 133.569 1471.66 134.708C1474.45 135.847 1476.55 137.381 1477.98 139.31C1479.59 141.123 1480.5 143.402 1480.72 146.149C1481.08 148.923 1480.87 152.338 1480.09 156.393L1471.94 198.535C1471.16 202.59 1470.07 205.909 1468.66 208.493C1467.44 210.96 1465.74 212.735 1463.58 213.819C1461.56 214.932 1459.05 215.497 1456.04 215.517C1453.03 215.536 1449.43 215.14 1445.23 214.328ZM1452.9 58.069L1492 65.6283L1491.29 69.3212L1452.19 61.7619L1452.9 58.069Z" fill="white"/>
<path d="M1519.1 71.9291L1522.96 72.9005L1485.18 223.097L1481.32 222.126L1519.1 71.9291ZM1521.67 72.5767L1555.57 81.1035L1554.66 84.7511L1520.75 76.2243L1521.67 72.5767ZM1502.73 145.153L1530.84 152.223L1529.87 156.085L1501.76 149.015L1502.73 145.153ZM1484.87 218.911L1518.77 227.438L1517.8 231.3L1483.89 222.773L1484.87 218.911Z" fill="white"/>
<path d="M1580.96 88.4083L1584.76 89.5945L1538.63 237.439L1534.83 236.253L1580.96 88.4083ZM1578.03 179.507L1558.18 173.312L1559.3 169.721L1593.94 180.529C1595.48 181.012 1596.54 181.109 1597.09 180.818C1597.83 180.431 1598.44 179.462 1598.92 177.914L1617.05 119.832C1618.63 114.763 1618.59 110.658 1616.95 107.517C1615.44 104.421 1612.08 102.06 1606.87 100.434L1583.22 93.0532L1584.34 89.4627L1604.19 95.6574C1608.42 96.9754 1611.85 98.3554 1614.49 99.7973C1617.13 101.239 1619.08 102.928 1620.33 104.863C1621.72 106.842 1622.35 109.279 1622.22 112.174C1622.13 114.928 1621.47 118.277 1620.24 122.219L1606.34 166.784C1605.06 170.867 1603.68 174.066 1602.18 176.381C1600.69 178.696 1598.81 180.272 1596.54 181.109C1594.41 181.99 1591.85 182.272 1588.85 181.957C1585.86 181.641 1582.25 180.825 1578.03 179.507Z" fill="white"/>
<path d="M1689.58 126.181L1693.09 127.519L1638 272.264L1634.49 270.926L1689.58 126.181ZM1648.64 110.598L1652.36 112.015L1597.27 256.76L1593.55 255.344L1648.64 110.598ZM1670.06 177.462L1671.92 178.17L1617.97 202.377L1616.1 201.669L1670.06 177.462Z" fill="white"/>
<path d="M1796.3 175.454L1799.87 177.229L1730.83 315.864L1727.26 314.088L1796.3 175.454ZM1757.88 156.32L1761.45 158.095L1692.41 296.73L1688.84 294.954L1757.88 156.32ZM1760.65 157.7L1797.49 176.045L1795.82 179.412L1758.98 161.067L1760.65 157.7Z" fill="white"/>
<path d="M1824.59 190.826L1828.05 192.815L1750.69 326.989L1747.24 325L1824.59 190.826ZM1801.81 279.077L1783.79 268.69L1785.67 265.431L1817.11 283.554C1818.51 284.364 1819.52 284.688 1820.12 284.526C1820.93 284.309 1821.73 283.498 1822.54 282.093L1852.93 229.381C1855.59 224.781 1856.45 220.768 1855.53 217.344C1854.74 213.993 1851.98 210.954 1847.25 208.228L1825.78 195.852L1827.66 192.594L1845.68 202.981C1849.51 205.191 1852.56 207.288 1854.82 209.273C1857.08 211.257 1858.61 213.331 1859.41 215.492C1860.33 217.728 1860.41 220.244 1859.65 223.04C1858.97 225.709 1857.59 228.832 1855.53 232.41L1832.21 272.854C1830.08 276.56 1828.03 279.378 1826.06 281.31C1824.1 283.242 1821.91 284.368 1819.52 284.688C1817.25 285.082 1814.69 284.798 1811.84 283.835C1808.99 282.873 1805.64 281.287 1801.81 279.077Z" fill="white"/>
<path d="M1885.18 226.997L1888.52 229.176L1803.77 358.807L1800.44 356.628L1885.18 226.997ZM1887.41 228.449L1916.67 247.578L1914.61 250.726L1885.35 231.598L1887.41 228.449ZM1845.81 290.865L1870.07 306.724L1867.89 310.058L1843.63 294.198L1845.81 290.865ZM1804.84 354.747L1834.1 373.876L1831.92 377.209L1802.66 358.08L1804.84 354.747Z" fill="white"/>
<path d="M1973.89 289.132L1976.91 291.375L1884.54 415.691L1881.52 413.448L1973.89 289.132ZM1946.18 268.547L1974.24 289.396L1972 292.415L1943.94 271.566L1946.18 268.547ZM1848.56 385.099C1853.62 381.506 1859.93 375.357 1867.5 366.65C1875.28 357.912 1884.05 346.972 1893.82 333.83L1943.7 266.7L1946.89 269.075L1897.01 336.206C1887.25 349.348 1878.54 360.331 1870.88 369.157C1863.42 377.952 1856.86 384.191 1851.18 387.875L1848.56 385.099ZM1842.87 379.77L1895.44 418.828L1893.06 422.025L1840.5 382.966L1842.87 379.77ZM1841.68 381.368L1844.7 383.611L1823.19 412.559L1820.17 410.316L1841.68 381.368ZM1891.05 418.051L1894.25 420.426L1872.74 449.374L1869.55 446.999L1891.05 418.051Z" fill="white"/>
<path d="M2052.68 352.604L2045.35 389.954L2041.08 391.813L2048.68 353.817L2052.68 352.604ZM2017.67 322.062L2016.4 326.539L1979.65 339.396L1981.82 334.543L2017.67 322.062ZM2051.51 351.586L2052.68 352.604L2052.39 352.937L2010.1 367.426L2009.91 369.32L1933.56 456.855L1930.72 454.382L2007.08 366.848L2051.51 351.586ZM2018.83 323.08L2009.91 369.32L1933.56 456.855L1930.72 454.382L2006.35 367.682L2014.75 323.045L2017.67 322.062L2018.83 323.08ZM1981.82 334.543L1984.66 337.015L1903.21 430.385L1900.38 427.913L1981.82 334.543ZM2042.51 387.482L2045.35 389.954L1963.9 483.324L1961.07 480.852L2042.51 387.482Z" fill="white"/>
<path d="M2081.8 383.322L2084.6 386.147L1974.74 495.313L1971.94 492.489L2081.8 383.322ZM2083.67 385.206L2108.31 410.002L2105.64 412.654L2081 387.857L2083.67 385.206ZM2030 437.602L2050.43 458.162L2047.6 460.969L2027.17 440.41L2030 437.602ZM1976.63 491.565L2001.27 516.361L1998.45 519.169L1973.81 494.372L1976.63 491.565Z" fill="white"/>
<path d="M2137.76 442.284L2140.27 445.092L2024.62 548.11L2022.12 545.301L2137.76 442.284ZM2135.11 439.31L2158.37 465.413L2155.56 467.914L2132.31 441.812L2135.11 439.31ZM2119.66 421.963L2142.91 448.066L2140.11 450.568L2116.85 424.465L2119.66 421.963Z" fill="white"/>
<path d="M2196.64 513.674L2198.99 516.882L2074.21 608.614L2071.85 605.405L2196.64 513.674ZM2088.1 627.51L2083.38 621.093L2086.59 618.734L2098.25 634.6C2099.13 635.788 2099.87 636.429 2100.49 636.524C2101.2 636.737 2102.2 636.363 2103.51 635.402L2146.83 603.558C2150.75 600.675 2152.92 597.525 2153.34 594.107C2153.84 590.807 2152.48 586.959 2149.24 582.562L2142.43 573.292L2144.93 571.457L2149.51 577.697C2154.06 583.876 2156.51 589.21 2156.88 593.698C2157.46 598.217 2155.25 602.312 2150.26 605.981L2115.32 631.666C2109.73 635.772 2104.77 637.494 2100.44 636.833C2096.23 636.085 2092.12 632.977 2088.1 627.51ZM2147.21 578.294L2143.14 572.768L2145.64 570.933L2152.06 579.668C2155.29 584.065 2158.56 586.516 2161.86 587.019C2165.36 587.555 2169.31 586.206 2173.71 582.974L2206.16 559.123C2210.79 555.716 2213.26 552.347 2213.55 549.016C2214.06 545.717 2212.69 541.869 2209.46 537.472L2205.27 531.767L2208.3 529.539L2212.49 535.244C2216.51 540.711 2218.21 545.506 2217.58 549.63C2217.15 553.786 2214.68 557.524 2210.17 560.843L2174.33 587.183C2169.94 590.416 2165.61 591.495 2161.34 590.422C2157.16 589.467 2152.45 585.425 2147.21 578.294ZM2137.64 560.059L2154.81 583.412L2151.6 585.771L2134.44 562.418L2137.64 560.059ZM2075.32 603.403L2088.42 621.23L2085.22 623.588L2072.11 605.762L2075.32 603.403ZM2197.16 514.387L2210.4 532.392L2207.36 534.619L2194.13 516.615L2197.16 514.387Z" fill="white"/>
<path d="M2276.37 631.966L2278.49 635.337L2147.42 717.83L2145.3 714.459L2276.37 631.966ZM2121.84 677.196L2110.65 659.407L2114.02 657.286L2133.46 688.183C2134.25 689.431 2134.95 690.124 2135.56 690.263C2136.25 690.527 2137.28 690.227 2138.65 689.362L2190.14 656.955C2194.76 654.048 2197.4 650.905 2198.07 647.525C2198.93 644.192 2197.91 640.216 2195 635.598L2181.8 614.625L2184.99 612.622L2196.18 630.411C2198.46 634.031 2200.14 637.247 2201.21 640.058C2202.28 642.869 2202.66 645.416 2202.36 647.7C2202.13 650.108 2201.09 652.331 2199.24 654.37C2197.46 656.533 2194.82 658.714 2191.33 660.914L2151.63 685.898C2148.14 688.098 2144.97 689.569 2142.12 690.313C2139.48 691.103 2137.03 691.08 2134.76 690.242C2132.57 689.53 2130.44 688.083 2128.37 685.9C2126.3 683.718 2124.12 680.816 2121.84 677.196ZM2240.07 574.293L2242.2 577.663L2111.12 660.156L2109 656.786L2240.07 574.293Z" fill="white"/>
<path d="M2291.06 658.674L2292.94 662.186L2156.37 735.218L2154.49 731.706L2291.06 658.674ZM2165.65 752.583L2155.74 734.048L2159.25 732.17L2176.47 764.362C2177.16 765.663 2177.81 766.404 2178.41 766.585C2179.08 766.897 2180.13 766.67 2181.56 765.905L2231.7 739.092C2236.51 736.518 2239.37 733.57 2240.27 730.245C2241.37 726.982 2240.63 722.944 2238.05 718.131L2226.37 696.279L2229.88 694.401L2239.79 712.936C2241.81 716.708 2243.25 720.034 2244.12 722.914C2245 725.794 2245.13 728.396 2244.54 730.722C2244.14 733.109 2242.95 735.253 2240.95 737.156C2239.03 739.188 2236.24 741.178 2232.6 743.125L2194.75 763.366C2191.11 765.313 2187.85 766.558 2184.96 767.099C2182.27 767.7 2179.82 767.504 2177.62 766.508C2175.48 765.643 2173.46 764.049 2171.55 761.725C2169.63 759.402 2167.67 756.355 2165.65 752.583ZM2291.79 660.04L2310.57 695.159L2307.26 696.932L2288.48 661.813L2291.79 660.04Z" fill="white"/>
<path d="M2322.76 720.163L2324.44 723.774L2184.03 789.127L2182.35 785.517L2322.76 720.163ZM2323.88 722.57L2338.63 754.263L2335.22 755.85L2320.47 724.157L2323.88 722.57ZM2255.6 753.618L2267.83 779.895L2264.22 781.575L2251.99 755.299L2255.6 753.618ZM2187.08 786.243L2201.83 817.936L2198.22 819.616L2183.47 787.924L2187.08 786.243Z" fill="white"/>
<path d="M2348.97 778.575L2350.44 782.274L2206.59 839.66L2205.11 835.961L2348.97 778.575ZM2276.4 833.726L2268.69 814.409L2272.19 813.015L2285.63 846.718C2286.23 848.225 2286.82 849.102 2287.4 849.349C2288.16 849.678 2289.3 849.542 2290.81 848.941L2347.32 826.396C2352.25 824.429 2355.42 821.816 2356.82 818.558C2358.27 815.437 2357.99 811.342 2355.97 806.273L2346.78 783.257L2350.28 781.863L2357.98 801.18C2359.62 805.29 2360.71 808.824 2361.26 811.783C2361.8 814.742 2361.72 817.316 2361.01 819.507C2360.35 821.834 2358.85 823.86 2356.52 825.583C2354.33 827.252 2351.32 828.852 2347.48 830.382L2304.12 847.68C2300.15 849.265 2296.79 850.206 2294.05 850.505C2291.31 850.804 2288.9 850.336 2286.82 849.102C2284.79 848.004 2282.96 846.195 2281.32 843.673C2279.68 841.152 2278.04 837.836 2276.4 833.726Z" fill="white"/>
<path d="M2388.11 886.705L2389.29 890.277L2242.2 938.754L2241.02 935.182L2388.11 886.705ZM2374.4 845.099L2375.65 848.881L2228.55 897.358L2227.31 893.576L2374.4 845.099ZM2336 903.88L2336.62 905.771L2283.82 879.145L2283.2 877.254L2336 903.88Z" fill="white"/>
<path d="M2417.14 1000.62L2418.01 1004.5L2266.86 1038.3L2266 1034.41L2417.14 1000.62ZM2407.77 958.728L2408.64 962.614L2257.5 996.41L2256.63 992.523L2407.77 958.728ZM2408.45 961.751L2417.43 1001.91L2413.76 1002.73L2404.78 962.571L2408.45 961.751Z" fill="white"/>
<path d="M2423.04 1032.27L2423.67 1036.2L2270.75 1060.73L2270.12 1056.8L2423.04 1032.27ZM2340.17 1070.21L2336.87 1049.68L2340.59 1049.08L2346.33 1084.91C2346.59 1086.51 2346.97 1087.49 2347.48 1087.86C2348.16 1088.35 2349.29 1088.46 2350.9 1088.21L2410.97 1078.57C2416.22 1077.73 2419.88 1075.87 2421.95 1073C2424.06 1070.27 2424.68 1066.21 2423.81 1060.83L2419.89 1036.36L2423.6 1035.76L2426.89 1056.3C2427.6 1060.67 2427.89 1064.35 2427.77 1067.36C2427.66 1070.37 2427.01 1072.86 2425.84 1074.84C2424.68 1076.97 2422.78 1078.62 2420.13 1079.79C2417.63 1080.94 2414.34 1081.84 2410.26 1082.49L2364.16 1089.89C2359.94 1090.57 2356.46 1090.75 2353.72 1090.44C2350.98 1090.14 2348.73 1089.15 2346.97 1087.49C2345.24 1085.98 2343.84 1083.81 2342.79 1080.99C2341.74 1078.17 2340.87 1074.58 2340.17 1070.21Z" fill="white"/>
<path d="M2433.15 1102.1L2433.56 1106.07L2279.51 1121.99L2279.1 1118.03L2433.15 1102.1ZM2433.43 1104.75L2437.02 1139.52L2433.28 1139.9L2429.69 1105.13L2433.43 1104.75ZM2358.75 1111.8L2361.73 1140.63L2357.77 1141.04L2354.79 1112.21L2358.75 1111.8ZM2283.33 1120.26L2286.93 1155.04L2282.97 1155.44L2279.37 1120.67L2283.33 1120.26Z" fill="white"/>
<path d="M2440.83 1210.13L2441 1213.89L2286.27 1220.55L2286.1 1216.79L2440.83 1210.13ZM2439.35 1175.65L2440.85 1210.57L2437.1 1210.74L2435.59 1175.81L2439.35 1175.65ZM2287.33 1173.33C2293.31 1175 2302.06 1176.02 2313.6 1176.41C2325.28 1176.94 2339.3 1176.86 2355.66 1176.15L2439.22 1172.55L2439.39 1176.53L2355.83 1180.13C2339.48 1180.83 2325.46 1180.99 2313.78 1180.61C2302.25 1180.37 2293.27 1179.21 2286.83 1177.12L2287.33 1173.33ZM2287.88 1165.56L2290.7 1230.99L2286.72 1231.16L2283.91 1165.73L2287.88 1165.56ZM2285.89 1165.65L2286.06 1169.4L2250.03 1170.95L2249.86 1167.2L2285.89 1165.65ZM2288.54 1227.1L2288.71 1231.08L2252.68 1232.63L2252.51 1228.65L2288.54 1227.1Z" fill="white"/>
<path d="M2441.23 1311.31L2407.61 1329.16L2403.48 1327.02L2437.77 1308.97L2441.23 1311.31ZM2442.87 1264.88L2438.6 1266.72L2405.44 1246.29L2410.58 1244.92L2442.87 1264.88ZM2441.28 1309.76L2441.23 1311.31L2440.79 1311.29L2402.88 1287.6L2401.29 1288.65L2285.21 1284.55L2285.34 1280.79L2401.43 1284.89L2441.28 1309.76ZM2442.81 1266.42L2401.29 1288.65L2285.21 1284.55L2285.34 1280.79L2400.32 1284.85L2440.27 1263.23L2442.87 1264.88L2442.81 1266.42ZM2410.58 1244.92L2410.45 1248.68L2286.63 1244.31L2286.76 1240.55L2410.58 1244.92ZM2407.75 1325.4L2407.61 1329.16L2283.79 1324.8L2283.92 1321.04L2407.75 1325.4Z" fill="white"/>
<path d="M2435.74 1353.28L2435.31 1357.24L2281.32 1340.77L2281.74 1336.81L2435.74 1353.28ZM2435.45 1355.92L2431.74 1390.67L2428 1390.28L2431.71 1355.52L2435.45 1355.92ZM2360.95 1347.28L2357.86 1376.1L2353.9 1375.68L2356.99 1346.86L2360.95 1347.28ZM2285.42 1339.87L2281.7 1374.63L2277.74 1374.21L2281.46 1339.45L2285.42 1339.87Z" fill="white"/>
<path d="M2425.25 1433.89L2424.64 1437.6L2271.77 1412.77L2272.37 1409.06L2425.25 1433.89ZM2425.88 1429.96L2420.28 1464.47L2416.57 1463.86L2422.17 1429.36L2425.88 1429.96ZM2429.61 1407.03L2424 1441.53L2420.29 1440.93L2425.9 1406.43L2429.61 1407.03Z" fill="white"/>
<path d="M2406.94 1524.6L2405.93 1528.45L2256.06 1489.4L2257.06 1485.55L2406.94 1524.6ZM2250.15 1512.1L2252.16 1504.39L2256.01 1505.39L2251.05 1524.45C2250.67 1525.88 2250.65 1526.86 2250.96 1527.4C2251.24 1528.08 2252.17 1528.63 2253.74 1529.04L2305.76 1542.59C2310.47 1543.82 2314.29 1543.52 2317.2 1541.69C2320.08 1540 2322.21 1536.51 2323.59 1531.23L2326.49 1520.1L2329.48 1520.88L2327.53 1528.37C2325.6 1535.79 2323 1541.06 2319.75 1544.18C2316.61 1547.48 2312.04 1548.34 2306.04 1546.78L2264.08 1535.85C2257.37 1534.1 2252.91 1531.34 2250.69 1527.56C2248.62 1523.82 2248.44 1518.66 2250.15 1512.1ZM2325.61 1526.96L2327.34 1520.32L2330.34 1521.1L2327.61 1531.59C2326.23 1536.87 2326.39 1540.95 2328.08 1543.83C2329.87 1546.89 2333.41 1549.11 2338.69 1550.48L2377.66 1560.64C2383.22 1562.09 2387.39 1561.88 2390.17 1560.01C2393.04 1558.32 2395.17 1554.83 2396.55 1549.55L2398.33 1542.7L2401.97 1543.65L2400.19 1550.5C2398.48 1557.07 2395.82 1561.41 2392.22 1563.52C2388.73 1565.81 2384.27 1566.25 2378.85 1564.83L2335.81 1553.62C2330.53 1552.25 2326.96 1549.56 2325.11 1545.57C2323.21 1541.73 2323.38 1535.52 2325.61 1526.96ZM2333.74 1508.04L2326.43 1536.09L2322.58 1535.08L2329.89 1507.04L2333.74 1508.04ZM2260.81 1486.98L2255.23 1508.39L2251.38 1507.39L2256.95 1485.98L2260.81 1486.98ZM2406.71 1525.45L2401.08 1547.08L2397.44 1546.13L2403.07 1524.5L2406.71 1525.45Z" fill="white"/>
<path d="M2365.37 1661.06L2364.09 1664.83L2217.43 1615.08L2218.71 1611.31L2365.37 1661.06ZM2232.85 1569.61L2239.6 1549.71L2243.37 1550.99L2231.65 1585.56C2231.17 1586.96 2231.07 1587.94 2231.35 1588.5C2231.58 1589.2 2232.46 1589.81 2234 1590.33L2291.62 1609.88C2296.79 1611.63 2300.89 1611.7 2303.93 1610.08C2307.06 1608.65 2309.51 1605.35 2311.26 1600.19L2319.22 1576.72L2322.78 1577.93L2316.03 1597.83C2314.66 1601.88 2313.22 1605.21 2311.71 1607.81C2310.2 1610.42 2308.47 1612.32 2306.5 1613.52C2304.49 1614.87 2302.11 1615.46 2299.36 1615.3C2296.56 1615.29 2293.2 1614.62 2289.29 1613.29L2244.87 1598.22C2240.96 1596.9 2237.82 1595.36 2235.45 1593.63C2233.17 1592.08 2231.64 1590.15 2230.86 1587.86C2230.04 1585.71 2229.82 1583.15 2230.2 1580.17C2230.59 1577.18 2231.48 1573.67 2232.85 1569.61ZM2387.26 1596.53L2385.98 1600.3L2239.32 1550.55L2240.6 1546.78L2387.26 1596.53Z" fill="white"/>
<path d="M2353.9 1689.3L2352.36 1692.97L2209.57 1632.99L2211.11 1629.32L2353.9 1689.3ZM2201.94 1651.14L2210.08 1631.77L2213.76 1633.31L2199.62 1666.97C2199.05 1668.33 2198.88 1669.3 2199.11 1669.87C2199.29 1670.59 2200.13 1671.26 2201.63 1671.89L2254.05 1693.91C2259.08 1696.03 2263.17 1696.38 2266.32 1694.99C2269.54 1693.78 2272.21 1690.66 2274.33 1685.63L2283.93 1662.79L2287.6 1664.33L2279.46 1683.71C2277.8 1687.65 2276.13 1690.87 2274.44 1693.36C2272.75 1695.85 2270.82 1697.6 2268.64 1698.6C2266.54 1699.8 2264.12 1700.22 2261.39 1699.87C2258.6 1699.66 2255.3 1698.76 2251.49 1697.16L2211.92 1680.53C2208.11 1678.93 2205.08 1677.18 2202.84 1675.28C2200.68 1673.57 2199.29 1671.55 2198.67 1669.21C2198 1667.01 2197.96 1664.43 2198.56 1661.48C2199.16 1658.53 2200.29 1655.09 2201.94 1651.14ZM2353.3 1690.73L2337.87 1727.45L2334.41 1725.99L2349.83 1689.27L2353.3 1690.73Z" fill="white"/>
<path d="M2326.15 1752.67L2324.4 1756.25L2185.16 1688.45L2186.9 1684.87L2326.15 1752.67ZM2324.98 1755.06L2309.68 1786.49L2306.3 1784.84L2321.6 1753.41L2324.98 1755.06ZM2257.84 1721.62L2245.15 1747.68L2241.57 1745.94L2254.26 1719.88L2257.84 1721.62ZM2189.32 1689L2174.02 1720.43L2170.44 1718.68L2185.74 1687.25L2189.32 1689Z" fill="white"/>
<path d="M2297.32 1809.83L2295.38 1813.31L2160.15 1737.82L2162.09 1734.34L2297.32 1809.83ZM2208.76 1788.27L2218.9 1770.11L2222.18 1771.94L2204.5 1803.62C2203.71 1805.04 2203.4 1806.05 2203.57 1806.65C2203.79 1807.45 2204.62 1808.25 2206.03 1809.04L2259.16 1838.7C2263.79 1841.29 2267.82 1842.1 2271.23 1841.13C2274.57 1840.29 2277.57 1837.49 2280.23 1832.73L2292.31 1811.09L2295.59 1812.93L2285.46 1831.08C2283.3 1834.95 2281.24 1838.02 2279.29 1840.31C2277.34 1842.6 2275.29 1844.16 2273.13 1844.98C2270.91 1845.94 2268.4 1846.06 2265.59 1845.33C2262.91 1844.68 2259.77 1843.35 2256.17 1841.34L2215.4 1818.58C2211.67 1816.5 2208.82 1814.48 2206.86 1812.55C2204.91 1810.61 2203.75 1808.44 2203.4 1806.05C2202.97 1803.78 2203.22 1801.22 2204.14 1798.36C2205.07 1795.49 2206.61 1792.13 2208.76 1788.27Z" fill="white"/>
<path d="M2238.06 1908.39L2236.03 1911.55L2105.67 1827.92L2107.7 1824.76L2238.06 1908.39ZM2261.71 1871.51L2259.56 1874.87L2129.21 1791.24L2131.36 1787.89L2261.71 1871.51ZM2191.87 1878.76L2190.8 1880.43L2178.18 1822.66L2179.26 1820.98L2191.87 1878.76Z" fill="white"/>
<path d="M2167.92 2002.72L2165.46 2005.85L2043.94 1909.82L2046.41 1906.7L2167.92 2002.72ZM2194.54 1969.05L2192.07 1972.17L2070.56 1876.15L2073.03 1873.02L2194.54 1969.05ZM2192.62 1971.48L2167.1 2003.77L2164.15 2001.43L2189.67 1969.15L2192.62 1971.48Z" fill="white"/>
<path d="M2147.07 2027.26L2144.42 2030.23L2028.98 1926.98L2031.63 1924.01L2147.07 2027.26ZM2065.38 1986.84L2079.24 1971.34L2082.05 1973.85L2057.86 2000.89C2056.78 2002.1 2056.25 2003.02 2056.29 2003.65C2056.33 2004.48 2056.96 2005.44 2058.17 2006.52L2103.52 2047.08C2107.48 2050.62 2111.23 2052.29 2114.77 2052.09C2118.21 2052 2121.75 2049.93 2125.39 2045.86L2141.91 2027.39L2144.71 2029.9L2130.85 2045.4C2127.9 2048.7 2125.22 2051.25 2122.81 2053.05C2120.41 2054.86 2118.07 2055.93 2115.79 2056.27C2113.41 2056.71 2110.93 2056.28 2108.35 2054.96C2105.88 2053.74 2103.1 2051.75 2100.02 2049L2065.23 2017.88C2062.04 2015.02 2059.7 2012.44 2058.21 2010.12C2056.73 2007.8 2056.07 2005.43 2056.25 2003.02C2056.33 2000.72 2057.14 1998.27 2058.66 1995.68C2060.19 1993.09 2062.43 1990.14 2065.38 1986.84Z" fill="white"/>
<path d="M2099.23 2079.13L2096.42 2081.95L1986.94 1972.4L1989.76 1969.58L2099.23 2079.13ZM2097.36 2081.01L2072.63 2105.72L2069.97 2103.06L2094.7 2078.35L2097.36 2081.01ZM2044.81 2027.49L2024.31 2047.97L2021.49 2045.16L2041.99 2024.67L2044.81 2027.49ZM1990.7 1974.28L1965.97 1998.99L1963.15 1996.17L1987.88 1971.46L1990.7 1974.28Z" fill="white"/>
<path d="M2020.22 2153.19L2017.4 2155.69L1914.69 2039.77L1917.51 2037.27L2020.22 2153.19ZM2046.05 2130.3L2019.88 2153.49L2017.39 2150.67L2043.55 2127.49L2046.05 2130.3ZM1952.02 2010.83C1954.5 2016.52 1959.22 2023.96 1966.19 2033.16C1973.14 2042.57 1982.05 2053.4 1992.9 2065.65L2048.37 2128.25L2045.39 2130.89L1989.92 2068.29C1979.07 2056.04 1970.1 2045.26 1963.04 2035.95C1955.96 2026.85 1951.2 2019.14 1948.76 2012.83L1952.02 2010.83ZM1958.4 2006.36L1909.38 2049.79L1906.74 2046.81L1955.76 2003.38L1958.4 2006.36ZM1957.08 2004.87L1954.27 2007.36L1930.35 1980.37L1933.16 1977.88L1957.08 2004.87ZM1911.04 2045.66L1908.06 2048.3L1884.15 2021.31L1887.13 2018.67L1911.04 2045.66Z" fill="white"/>
<path d="M1941.92 2217.28L1906.87 2202.44L1905.93 2197.88L1941.55 2213.12L1941.92 2217.28ZM1979 2189.28L1974.88 2187.12L1969.84 2148.51L1974.14 2151.64L1979 2189.28ZM1943.16 2216.34L1941.92 2217.28L1941.65 2216.92L1936.16 2172.56L1934.34 2171.99L1864.34 2079.29L1867.34 2077.03L1937.34 2169.72L1943.16 2216.34ZM1977.76 2190.21L1934.34 2171.99L1864.34 2079.29L1867.34 2077.03L1936.67 2168.84L1978.64 2186.23L1979 2189.28L1977.76 2190.21ZM1974.14 2151.64L1971.14 2153.9L1896.48 2055.03L1899.48 2052.76L1974.14 2151.64ZM1909.87 2200.17L1906.87 2202.44L1832.21 2103.56L1835.21 2101.29L1909.87 2200.17Z" fill="white"/>
<path d="M1905.88 2239.47L1902.54 2241.64L1818.25 2111.71L1821.59 2109.54L1905.88 2239.47ZM1903.65 2240.91L1874.33 2259.94L1872.28 2256.78L1901.61 2237.76L1903.65 2240.91ZM1863.39 2177.63L1839.07 2193.4L1836.91 2190.06L1861.22 2174.29L1863.39 2177.63ZM1821.53 2114.33L1792.2 2133.35L1790.04 2130.01L1819.36 2110.99L1821.53 2114.33Z" fill="white"/>
<path d="M1836.69 2282.14L1833.42 2284.01L1756.34 2149.69L1759.6 2147.81L1836.69 2282.14ZM1840.14 2280.16L1809.82 2297.56L1807.95 2294.3L1838.27 2276.9L1840.14 2280.16ZM1860.29 2268.6L1829.97 2286L1828.1 2282.73L1858.42 2265.33L1860.29 2268.6Z" fill="white"/>
<path d="M1740.89 2324.59L1737.22 2326.15L1676.36 2183.74L1680.03 2182.17L1740.89 2324.59ZM1654.8 2192.95L1662.12 2189.82L1663.69 2193.48L1645.58 2201.22C1644.22 2201.8 1643.43 2202.38 1643.2 2202.96C1642.83 2203.6 1642.96 2204.67 1643.6 2206.16L1664.73 2255.6C1666.64 2260.07 1669.21 2262.9 1672.45 2264.09C1675.54 2265.33 1679.6 2264.88 1684.62 2262.74L1695.2 2258.21L1696.42 2261.06L1689.3 2264.11C1682.24 2267.12 1676.49 2268.3 1672.03 2267.63C1667.5 2267.16 1664.02 2264.08 1661.59 2258.38L1644.55 2218.51C1641.82 2212.13 1641.27 2206.91 1642.91 2202.85C1644.59 2198.92 1648.56 2195.62 1654.8 2192.95ZM1689.24 2261.72L1695.55 2259.03L1696.76 2261.88L1686.79 2266.14C1681.78 2268.28 1678.65 2270.9 1677.4 2274C1676.08 2277.29 1676.49 2281.45 1678.64 2286.46L1694.46 2323.49C1696.72 2328.78 1699.44 2331.95 1702.62 2333C1705.71 2334.24 1709.77 2333.79 1714.79 2331.65L1721.3 2328.87L1722.78 2332.32L1716.27 2335.11C1710.03 2337.77 1704.97 2338.33 1701.1 2336.78C1697.15 2335.42 1694.08 2332.16 1691.87 2327.01L1674.4 2286.11C1672.25 2281.09 1672.19 2276.63 1674.21 2272.72C1676.09 2268.87 1681.1 2265.2 1689.24 2261.72ZM1709.17 2256.57L1682.52 2267.96L1680.96 2264.3L1707.61 2252.91L1709.17 2256.57ZM1681.18 2186.01L1660.84 2194.7L1659.27 2191.04L1679.62 2182.34L1681.18 2186.01ZM1740.07 2324.93L1719.52 2333.72L1718.05 2330.26L1738.59 2321.48L1740.07 2324.93Z" fill="white"/>
<path d="M1607.53 2375.25L1603.76 2376.55L1553.33 2230.11L1557.1 2228.82L1607.53 2375.25ZM1598.73 2214.48L1618.6 2207.63L1619.9 2211.4L1585.38 2223.29C1583.99 2223.77 1583.15 2224.29 1582.88 2224.85C1582.46 2225.46 1582.52 2226.53 1583.05 2228.07L1602.86 2285.6C1604.64 2290.76 1607.1 2294.04 1610.24 2295.46C1613.28 2297.06 1617.39 2296.97 1622.55 2295.2L1645.98 2287.13L1647.2 2290.68L1627.33 2297.53C1623.28 2298.92 1619.77 2299.82 1616.79 2300.22C1613.81 2300.62 1611.24 2300.42 1609.09 2299.6C1606.79 2298.83 1604.87 2297.31 1603.3 2295.04C1601.6 2292.81 1600.08 2289.75 1598.74 2285.85L1583.46 2241.5C1582.12 2237.59 1581.41 2234.17 1581.33 2231.23C1581.16 2228.48 1581.75 2226.1 1583.08 2224.08C1584.27 2222.11 1586.17 2220.36 1588.77 2218.85C1591.36 2217.33 1594.68 2215.87 1598.73 2214.48ZM1671.96 2353.06L1668.19 2354.36L1617.76 2207.92L1621.53 2206.63L1671.96 2353.06Z" fill="white"/>
<path d="M1578.17 2383.46L1574.33 2384.49L1534.36 2234.86L1538.21 2233.83L1578.17 2383.46ZM1515.34 2239.94L1535.64 2234.52L1536.67 2238.37L1501.4 2247.79C1499.98 2248.17 1499.11 2248.63 1498.79 2249.17C1498.34 2249.75 1498.32 2250.82 1498.74 2252.39L1513.41 2307.33C1514.82 2312.6 1517.04 2316.05 1520.07 2317.69C1523 2319.5 1527.1 2319.7 1532.37 2318.29L1556.31 2311.9L1557.34 2315.75L1537.03 2321.17C1532.9 2322.27 1529.33 2322.92 1526.33 2323.11C1523.33 2323.3 1520.76 2322.84 1518.63 2321.73C1516.4 2320.8 1514.58 2319.15 1513.19 2316.78C1511.65 2314.44 1510.34 2311.28 1509.28 2307.29L1498.2 2265.82C1497.14 2261.83 1496.67 2258.36 1496.8 2255.43C1496.83 2252.67 1497.58 2250.34 1499.05 2248.42C1500.38 2246.53 1502.39 2244.93 1505.09 2243.6C1507.79 2242.26 1511.2 2241.05 1515.34 2239.94ZM1576.68 2383.86L1538.2 2394.14L1537.23 2390.51L1575.71 2380.23L1576.68 2383.86Z" fill="white"/>
<path d="M1511.08 2400.3L1507.18 2401.12L1475.56 2249.5L1479.46 2248.69L1511.08 2400.3ZM1508.48 2400.85L1474.26 2407.98L1473.49 2404.3L1507.71 2397.16L1508.48 2400.85ZM1493.82 2327.29L1465.44 2333.2L1464.63 2329.3L1493 2323.39L1493.82 2327.29ZM1477.68 2253.13L1443.46 2260.27L1442.64 2256.37L1476.86 2249.23L1477.68 2253.13Z" fill="white"/>
<path d="M1448.23 2412.5L1444.29 2413.09L1421.22 2259.95L1425.16 2259.35L1448.23 2412.5ZM1411.08 2329.27L1431.64 2326.17L1432.2 2329.89L1396.32 2335.29C1394.72 2335.54 1393.73 2335.91 1393.36 2336.41C1392.86 2337.08 1392.74 2338.22 1392.98 2339.83L1402.04 2399.99C1402.83 2405.24 1404.66 2408.92 1407.51 2411.03C1410.22 2413.15 1414.27 2413.81 1419.66 2413L1444.17 2409.31L1444.73 2413.03L1424.16 2416.12C1419.79 2416.78 1416.1 2417.04 1413.09 2416.9C1410.09 2416.75 1407.6 2416.08 1405.63 2414.89C1403.51 2413.72 1401.88 2411.8 1400.74 2409.14C1399.61 2406.62 1398.74 2403.32 1398.13 2399.24L1391.17 2353.08C1390.53 2348.85 1390.38 2345.36 1390.72 2342.63C1391.05 2339.89 1392.05 2337.65 1393.73 2335.91C1395.26 2334.19 1397.44 2332.81 1400.27 2331.79C1403.1 2330.77 1406.7 2329.93 1411.08 2329.27Z" fill="white"/>
<path d="M1334.02 2425.96L1330.27 2426.29L1316.62 2272.02L1320.36 2271.69L1334.02 2425.96ZM1377.66 2422.09L1373.69 2422.45L1360.03 2268.17L1364 2267.82L1377.66 2422.09ZM1329.18 2371.3L1327.2 2371.48L1365.16 2326.14L1367.15 2325.96L1329.18 2371.3Z" fill="white"/>
<path d="M1216.49 2428.24L1212.51 2428.2L1214.07 2273.34L1218.05 2273.38L1216.49 2428.24ZM1259.41 2428.68L1255.43 2428.64L1256.99 2273.77L1260.97 2273.81L1259.41 2428.68ZM1256.32 2428.64L1215.16 2428.23L1215.2 2424.47L1256.35 2424.88L1256.32 2428.64Z" fill="white"/>
<path d="M1184.33 2426.77L1180.36 2426.49L1191.34 2272L1195.31 2272.29L1184.33 2426.77ZM1166.28 2337.43L1187.03 2338.91L1186.76 2342.66L1150.57 2340.08C1148.95 2339.97 1147.9 2340.12 1147.43 2340.53C1146.8 2341.07 1146.43 2342.16 1146.31 2343.77L1142 2404.46C1141.62 2409.76 1142.59 2413.75 1144.92 2416.43C1147.09 2419.1 1150.9 2420.62 1156.35 2421.01L1181.06 2422.77L1180.8 2426.52L1160.05 2425.05C1155.64 2424.73 1151.98 2424.18 1149.08 2423.38C1146.18 2422.58 1143.9 2421.38 1142.24 2419.79C1140.43 2418.18 1139.26 2415.95 1138.72 2413.1C1138.17 2410.4 1138.05 2406.99 1138.34 2402.87L1141.65 2356.31C1141.95 2352.04 1142.57 2348.61 1143.49 2346.01C1144.42 2343.42 1145.89 2341.45 1147.9 2340.12C1149.77 2338.77 1152.2 2337.91 1155.18 2337.53C1158.17 2337.15 1161.87 2337.12 1166.28 2337.43Z" fill="white"/>
<path d="M1114.02 2420.69L1110.07 2420.19L1129.7 2266.56L1133.65 2267.07L1114.02 2420.69ZM1111.39 2420.36L1076.72 2415.93L1077.19 2412.2L1111.87 2416.63L1111.39 2420.36ZM1121.55 2346.04L1092.8 2342.37L1093.31 2338.42L1122.06 2342.09L1121.55 2346.04ZM1130.51 2270.68L1095.83 2266.25L1096.34 2262.3L1131.01 2266.73L1130.51 2270.68Z" fill="white"/>
<path d="M1007.09 2403.54L1003.4 2402.84L1032.19 2250.67L1035.89 2251.37L1007.09 2403.54ZM1041 2409.96L1006.66 2403.46L1007.36 2399.76L1041.7 2406.26L1041 2409.96ZM1077.92 2262.47C1074.94 2267.91 1071.95 2276.2 1068.94 2287.34C1065.76 2298.6 1062.64 2312.27 1059.6 2328.36L1044.05 2410.53L1040.14 2409.79L1055.69 2327.62C1058.73 2311.53 1061.77 2297.85 1064.81 2286.56C1067.67 2275.39 1070.85 2266.91 1074.35 2261.12L1077.92 2262.47ZM1085.37 2264.78L1021.02 2252.6L1021.76 2248.69L1086.11 2260.87L1085.37 2264.78ZM1085.74 2262.83L1082.04 2262.13L1088.75 2226.69L1092.44 2227.39L1085.74 2262.83ZM1025.3 2251.39L1021.39 2250.65L1028.1 2215.21L1032.01 2215.95L1025.3 2251.39Z" fill="white"/>
<path d="M908.49 2380.85L898.773 2344.05L901.797 2340.52L911.554 2378.02L908.49 2380.85ZM953.327 2393.04L952.508 2388.46L979.959 2360.84L980.119 2366.15L953.327 2393.04ZM909.985 2381.26L908.49 2380.85L908.606 2380.43L940.323 2348.92L939.662 2347.14L970.119 2235.04L973.749 2236.03L943.291 2348.12L909.985 2381.26ZM951.833 2392.63L939.662 2347.14L970.119 2235.04L973.749 2236.03L943.582 2347.06L955.518 2390.88L953.327 2393.04L951.833 2392.63ZM980.119 2366.15L976.49 2365.17L1008.98 2245.6L1012.61 2246.59L980.119 2366.15ZM902.402 2345.04L898.773 2344.05L931.261 2224.49L934.89 2225.47L902.402 2345.04Z" fill="white"/>
<path d="M868.882 2365.94L865.123 2364.62L916.273 2218.44L920.032 2219.75L868.882 2365.94ZM866.376 2365.06L833.38 2353.51L834.623 2349.96L867.619 2361.51L866.376 2365.06ZM891.774 2294.48L864.417 2284.91L865.732 2281.15L893.089 2290.72L891.774 2294.48ZM916.211 2222.63L883.215 2211.09L884.53 2207.33L917.526 2218.87L916.211 2222.63Z" fill="white"/>
<path d="M792.783 2337.34L789.305 2335.9L848.345 2192.72L851.822 2194.16L792.783 2337.34ZM796.464 2338.86L764.147 2325.53L765.58 2322.05L797.898 2335.38L796.464 2338.86ZM817.941 2347.71L785.624 2334.39L787.057 2330.91L819.375 2344.23L817.941 2347.71Z" fill="white"/>
</svg>
