<svg width="46" height="46" viewBox="0 0 46 46" fill="none" xmlns="http://www.w3.org/2000/svg">
<path d="M23 0L23.1566 21.8607L29.2053 0.852901L23.4582 21.9452L34.9504 3.34835L23.7258 22.1079L39.8092 7.30128L23.9395 22.3368L43.4214 12.4185L24.0836 22.6149L45.5189 18.3205L24.1473 22.9215L45.9464 24.5696L24.1259 23.234L44.672 30.7022L24.0211 23.5291L41.7903 36.2636L23.8405 23.7849L37.515 40.8414L23.5975 23.9826L32.1632 44.0959L23.3103 24.1074L26.1318 45.7858L23 24.15L19.8682 45.7858L22.6897 24.1074L13.8368 44.0959L22.4025 23.9826L8.48498 40.8414L22.1595 23.7849L4.20969 36.2636L21.9789 23.5291L1.328 30.7022L21.8741 23.234L0.0536175 24.5696L21.8527 22.9215L0.481066 18.3205L21.9164 22.6149L2.57864 12.4185L22.0605 22.3368L6.19077 7.30128L22.2742 22.1079L11.0496 3.34835L22.5418 21.9452L16.7947 0.852901L22.8434 21.8607L23 0Z" fill="#D9D9D9"/>
</svg>
