<svg width="449" height="349" viewBox="0 0 449 349" fill="none" xmlns="http://www.w3.org/2000/svg">
<path d="M0 4.43018H16.8154V349H0V4.43018ZM37.4278 349H13.5608V321.927H44.4794C46.2875 321.927 47.4628 321.434 48.0052 320.45C48.7285 319.465 49.0901 317.168 49.0901 313.559V205.265C49.0901 197.389 48.186 191.811 46.3779 188.529C44.5698 185.247 41.496 183.606 37.1566 183.606H13.5608V156.533H37.4278C42.6713 156.533 47.1012 157.354 50.7174 158.994C54.3336 160.635 57.2265 163.425 59.3963 167.362C61.7468 170.972 63.3741 175.895 64.2782 182.13C65.363 188.365 65.9054 196.077 65.9054 205.265V300.268C65.9054 309.785 65.363 317.661 64.2782 323.896C63.3741 330.131 61.7468 335.053 59.3963 338.663C57.2265 342.273 54.3336 344.898 50.7174 346.539C47.1012 348.18 42.6713 349 37.4278 349ZM14.1032 4.43018H59.9387V31.0113H14.1032V4.43018Z" fill="white"/>
<path d="M114.4 0H116.299V11.3216L90.2619 92.0494L96.2287 110.262V349H79.6845V108.293L114.4 0ZM117.112 0L151.828 108.293V349H135.284V111.247L108.162 27.0733L115.214 0H117.112ZM91.618 201.327H139.623V227.908H91.618V201.327Z" fill="white"/>
<path d="M253.303 4.43018H269.847V349H253.303V4.43018ZM211.536 4.43018H228.08V349H211.536V4.43018ZM170.04 4.43018H186.855V349H170.04V4.43018ZM180.075 321.927H260.083V349H180.075V321.927Z" fill="white"/>
<path d="M289.756 4.43018H306.571V349H289.756V4.43018ZM329.896 186.068L323.116 179.669L314.708 176.715L342.914 110.755V4.43018H359.458V116.169L329.896 186.068ZM343.728 349V241.691L315.521 176.715L327.184 170.808L330.438 166.378L360.001 236.769V349H343.728ZM296.808 162.44H328.54V189.021H296.808V162.44Z" fill="white"/>
<path d="M411.572 0H413.471V11.3216L387.434 92.0494L393.401 110.262V349H376.857V108.293L411.572 0ZM414.284 0L449 108.293V349H432.456V111.247L405.334 27.0733L412.386 0H414.284ZM388.79 201.327H436.795V227.908H388.79V201.327Z" fill="white"/>
</svg>
