<svg width="1400" height="1400" viewBox="0 0 1400 1400" fill="none" xmlns="http://www.w3.org/2000/svg">
<path d="M45.6798 495.313L62.0195 452.513L203.337 506.465L201.95 510.099L64.0642 457.458L50.4992 492.989L188.385 545.631L186.998 549.264L45.6798 495.313Z" fill="white"/>
<path d="M221.958 470.751C218.838 476.597 215.295 480.177 211.329 481.489C207.303 482.607 202.304 481.572 196.33 478.384L96.2399 424.973C90.3933 421.853 86.8773 418.344 85.6918 414.446C84.447 410.352 85.3846 405.382 88.5045 399.536L93.8965 389.431C97.0164 383.585 100.589 380.103 104.615 378.985C108.581 377.672 113.487 378.576 119.334 381.696L219.424 435.107C225.398 438.295 229.007 441.935 230.252 446.029C231.437 449.927 230.47 454.8 227.35 460.646L221.958 470.751ZM198.06 475.143C202.762 477.653 206.737 478.467 209.983 477.587C213.169 476.511 216.017 473.622 218.527 468.919L229.209 448.901C229.955 447.503 230.239 446.512 230.061 445.927C229.951 445.215 229.197 444.486 227.799 443.74L117.604 384.937C112.902 382.427 108.957 381.71 105.771 382.786C102.525 383.667 99.647 386.458 97.1375 391.161L86.4553 411.179C85.7092 412.577 85.4547 413.666 85.6918 414.446C85.8696 415.03 86.6576 415.696 88.0557 416.442L198.06 475.143Z" fill="white"/>
<path d="M127.446 335.767L150.16 303.659L273.651 391.018L271.529 394.017L151.037 308.78L132.743 335.014L205.156 387.563C216.197 395.902 224.702 402.713 230.671 407.995C236.523 413.193 240.721 417.486 243.265 420.874C245.692 424.179 246.818 426.829 246.643 428.822C246.433 430.615 245.746 432.335 244.581 433.981L243.708 435.216L240.709 433.095C241.624 431.801 242.145 430.317 242.271 428.641C242.28 426.883 240.987 424.469 238.394 421.399C235.767 418.129 231.368 413.87 225.198 408.623C219.111 403.258 210.37 396.281 198.976 387.691L127.446 335.767Z" fill="white"/>
<path d="M245.832 334.982L248.458 332.113L277.152 358.374C281.084 361.973 284.731 363.749 288.094 363.702C291.448 363.452 294.924 361.361 298.523 357.428L310.778 344.038C311.848 342.869 312.37 341.979 312.343 341.369C312.316 340.758 311.718 339.918 310.549 338.848L268.784 300.623L233.079 323.311L176.967 271.955L179.594 269.086L233.633 318.545L266.074 298.143L204.542 241.827L207.168 238.957L304.726 328.246C309.721 332.817 312.313 337.24 312.502 341.515C312.585 345.692 310.389 350.224 305.915 355.113L301.393 360.055C296.821 365.049 292.451 367.69 288.283 367.976C284.106 368.059 279.52 365.815 274.526 361.244L245.832 334.982Z" fill="white"/>
<path d="M238.605 210.073L278.217 256.381C281.682 260.432 285.18 262.748 288.711 263.329C292.351 263.817 296.197 262.329 300.247 258.864L317.49 244.115L267.343 185.491L270.134 183.103L368.462 298.052L365.67 300.44L319.878 246.907L305.427 259.268C298.968 264.793 293.403 267.373 288.731 267.009C284.059 266.645 278.961 263.234 273.436 256.775L235.65 212.602L238.605 210.073Z" fill="white"/>
<path d="M338.283 136.04L341.345 134.01L424.952 260.07L421.891 262.101L368.979 182.322L358.063 236.237L389.475 283.6L386.234 285.75L302.626 159.689L305.868 157.539L357.107 234.796L367.904 180.702L338.283 136.04Z" fill="white"/>
<path d="M367.845 119.385L418.59 93.7934L420.244 97.0735L396.512 109.042L462.973 240.824L459.692 242.479L393.232 110.697L369.499 122.665L367.845 119.385Z" fill="white"/>
<path d="M446.882 83.0005L450.533 81.6591L473.112 143.12L491.774 136.264C495.831 134.774 499.311 133.802 502.214 133.349C505.117 132.897 507.628 133.048 509.748 133.805C511.867 134.561 513.712 136.032 515.283 138.217C516.988 140.353 518.537 143.314 519.928 147.101L535.725 190.103C537.116 193.889 537.853 197.148 537.936 199.881C538.154 202.563 537.725 204.946 536.649 207.03C535.523 208.978 533.707 210.72 531.201 212.254C528.696 213.789 525.414 215.301 521.357 216.791L499.045 224.988L446.882 83.0005ZM501.355 219.996L534.215 207.924C535.702 207.377 536.574 206.827 536.831 206.272C537.223 205.668 537.146 204.622 536.599 203.134L516.107 147.353C514.269 142.35 511.803 139.189 508.709 137.87C505.701 136.366 501.695 136.533 496.692 138.371L474.379 146.568L501.355 219.996Z" fill="white"/>
<path d="M581.88 45.7023L627.202 39.0191L649.27 188.667L645.421 189.235L623.89 43.2209L586.264 48.7692L607.796 194.783L603.948 195.35L581.88 45.7023Z" fill="white"/>
<path d="M667.883 36.6439L691.646 36.0639C695.967 35.9585 699.575 36.1586 702.469 36.6644C705.364 37.1702 707.692 38.1221 709.456 39.5201C711.219 40.9181 712.494 42.9766 713.281 45.6954C714.209 48.2666 714.722 51.5686 714.82 55.6011L715.932 101.184C716.034 105.36 715.685 108.755 714.884 111.369C714.227 113.979 713.052 116.025 711.359 117.507C709.666 118.989 707.386 120.054 704.52 120.7C701.654 121.347 698.06 121.723 693.74 121.828L673.865 122.313L675.462 187.77L671.574 187.865L667.883 36.6439ZM673.775 118.641L708.772 117.786C710.356 117.748 711.359 117.507 711.781 117.064C712.343 116.474 712.604 115.387 712.566 113.803L711.116 54.3946C710.986 49.0658 709.668 45.2792 707.164 43.0346C704.8 40.6425 700.953 39.5115 695.625 39.6415L671.861 40.2215L673.775 118.641Z" fill="white"/>
<path d="M749.53 37.9886L786.116 41.3135L785.783 44.9721L753.072 41.9992L746.774 111.296L773.029 113.682L772.677 117.556L746.422 115.17L740.065 185.112L772.777 188.085L772.425 191.959L735.84 188.634L749.53 37.9886Z" fill="white"/>
<path d="M788.984 190.68L796.588 192.321C799.635 187.084 802.751 179.135 805.937 168.474C809.153 157.673 812.419 144.597 815.732 129.248L832.971 49.4039L872.47 57.9319L841.368 201.989L851.507 204.178L843.664 240.51L839.861 239.689L846.884 207.16L791.754 195.257L784.731 227.786L781.14 227.011L788.984 190.68ZM837.778 201.214L868.104 60.7475L835.998 53.8157L819.535 130.069C816.312 144.996 813.178 157.805 810.133 168.496C807.118 179.046 803.941 187.277 800.601 193.188L837.778 201.214Z" fill="white"/>
<path d="M940.196 141.398L936.735 140.167L949.838 103.314C951.624 98.2917 951.749 94.2844 950.213 91.2921C948.862 88.2124 945.675 85.7796 940.653 83.9939L920.699 76.8994C919.206 76.3685 918.092 76.2781 917.356 76.628C916.804 76.8904 916.262 77.7682 915.731 79.2613L873.96 196.743C872.175 201.765 871.958 205.816 873.309 208.896C874.844 211.888 878.123 214.277 883.146 216.063L892.511 219.393C897.534 221.179 901.517 221.372 904.461 219.972C907.589 218.485 910.046 215.23 911.832 210.208L924.862 173.559L928.324 174.789L915.293 211.439C913.025 217.819 909.958 221.927 906.094 223.764C902.414 225.513 897.452 225.278 891.208 223.058L881.842 219.728C875.598 217.508 871.534 214.534 869.649 210.806C867.947 206.99 868.231 201.892 870.499 195.512L908.505 88.6182C910.726 82.3742 913.676 78.3775 917.356 76.628C921.22 74.791 926.274 74.9825 932.518 77.2025L941.884 80.5326C948.127 82.7527 952.1 85.7706 953.801 89.5863C955.687 93.3146 955.519 98.3007 953.299 104.545L940.196 141.398Z" fill="white"/>
<path d="M995.948 103.553L999.421 105.304L966.434 170.713L978.783 176.941L1013.32 165.56L1034.73 123.111L1038.2 124.863L1016.11 168.662L980.413 180.425L992.274 215.934L970.088 259.925L966.615 258.174L988.12 215.533L976.452 180.122L964.682 174.186L931.306 240.367L927.833 238.615L995.948 103.553Z" fill="white"/>
<path d="M1091.34 156.622L1092.95 157.708L1089.92 203.604L1026.56 297.71L1023.33 295.537L1056.52 246.244L1023.01 223.674L989.815 272.968L986.768 270.916L1050.13 176.81L1091.34 156.622ZM1025.06 220.627L1058.58 243.196L1086.09 202.328L1088.81 159.607L1053.13 177.004L1053.18 178.862L1025.06 220.627Z" fill="white"/>
<path d="M1103.32 240.549L1129.05 211.094C1133.41 206.103 1137.68 203.519 1141.85 203.339C1146.12 203.051 1150.75 205.088 1155.74 209.448L1161.44 214.424C1166.43 218.784 1169.06 222.997 1169.33 227.062C1169.81 231.114 1168.25 235.201 1164.65 239.324L1136.07 272.034C1133.51 274.963 1130.78 276.882 1127.88 277.793C1125.08 278.594 1121.72 278.055 1117.82 276.174C1120.29 279.479 1121.47 282.615 1121.36 285.583C1121.36 288.646 1119.94 291.805 1117.1 295.06L1089.23 326.956C1084.78 332.055 1080.42 334.748 1076.15 335.036C1072.08 335.31 1067.5 333.219 1062.4 328.765L1055.89 323.077C1050.9 318.717 1048.21 314.457 1047.83 310.297C1047.65 306.123 1049.79 301.486 1054.24 296.387L1079.84 267.095L1082.6 269.512L1057.01 298.804C1053.5 302.818 1051.81 306.506 1051.94 309.867C1052.26 313.214 1054.44 316.641 1058.45 320.148L1073.58 333.371C1074.78 334.413 1075.68 334.914 1076.29 334.873C1076.9 334.832 1077.72 334.215 1078.77 333.021L1113.32 293.477C1116.44 289.897 1117.84 286.433 1117.52 283.086C1117.3 279.833 1115.18 276.454 1111.17 272.947L1102.7 265.553L1105.26 262.624L1113.24 269.591C1117.25 273.098 1120.88 274.742 1124.14 274.523C1127.59 274.29 1131.07 272.166 1134.58 268.152L1160.46 238.534C1164.15 234.303 1165.79 230.568 1165.37 227.33C1165.15 224.077 1163.03 220.697 1159.02 217.19L1153.32 212.214C1149.31 208.707 1145.57 207.07 1142.12 207.303C1138.87 207.522 1135.49 209.639 1131.98 213.653L1106.24 243.108L1103.32 240.549Z" fill="white"/>
<path d="M1220.97 272.317L1222.26 273.77L1207.93 317.476L1123.18 392.898L1120.59 389.992L1164.99 350.486L1138.12 320.299L1093.73 359.805L1091.29 357.061L1176.04 281.639L1220.97 272.317ZM1140.87 317.856L1167.73 348.043L1204.54 315.289L1217.77 274.58L1178.89 282.571L1178.48 284.384L1140.87 317.856Z" fill="white"/>
<path d="M1283.69 359.079L1285.89 362.286L1161.19 447.914L1158.99 444.707L1215.1 406.175L1202.06 368.472L1137.22 412.999L1135.02 409.792L1259.71 324.164L1261.91 327.371L1205.09 366.392L1218.13 404.095L1283.69 359.079Z" fill="white"/>
<path d="M1325.48 435.719L1327.17 438.984L1192.73 508.331L1191.05 505.066L1276.13 461.179L1223.73 444.443L1173.22 470.498L1171.43 467.041L1305.87 397.693L1307.65 401.15L1225.26 443.65L1277.85 460.288L1325.48 435.719Z" fill="white"/>
<path d="M1342.14 475.826L1355 510.237L1351.56 511.523L1340.06 480.756L1274.88 505.12L1284.11 529.815L1280.47 531.177L1271.24 506.482L1205.45 531.073L1216.96 561.84L1213.31 563.202L1200.45 528.792L1342.14 475.826Z" fill="white"/>
<path d="M1349.54 904.822L1333.2 947.621L1191.89 893.669L1193.27 890.035L1331.16 942.677L1344.72 907.145L1206.84 854.504L1208.23 850.87L1349.54 904.822Z" fill="white"/>
<path d="M1173.27 929.384C1176.39 923.537 1179.93 919.958 1183.89 918.645C1187.92 917.527 1192.92 918.562 1198.89 921.75L1298.98 975.161C1304.83 978.281 1308.35 981.791 1309.53 985.689C1310.78 989.782 1309.84 994.752 1306.72 1000.6L1301.33 1010.7C1298.21 1016.55 1294.63 1020.03 1290.61 1021.15C1286.64 1022.46 1281.74 1021.56 1275.89 1018.44L1175.8 965.027C1169.83 961.84 1166.22 958.199 1164.97 954.106C1163.79 950.207 1164.75 945.335 1167.87 939.488L1173.27 929.384ZM1197.16 924.991C1192.46 922.482 1188.49 921.667 1185.24 922.548C1182.05 923.623 1179.21 926.512 1176.7 931.215L1166.01 951.233C1165.27 952.631 1164.98 953.623 1165.16 954.207C1165.27 954.919 1166.03 955.648 1167.42 956.394L1277.62 1015.2C1282.32 1017.71 1286.27 1018.42 1289.45 1017.35C1292.7 1016.47 1295.58 1013.68 1298.09 1008.97L1308.77 988.956C1309.51 987.558 1309.77 986.469 1309.53 985.689C1309.35 985.104 1308.57 984.439 1307.17 983.693L1197.16 924.991Z" fill="white"/>
<path d="M1267.78 1064.37L1245.06 1096.48L1121.57 1009.12L1123.69 1006.12L1244.19 1091.35L1262.48 1065.12L1190.07 1012.57C1179.03 1004.23 1170.52 997.421 1164.55 992.14C1158.7 986.941 1154.5 982.648 1151.96 979.26C1149.53 975.955 1148.41 973.306 1148.58 971.312C1148.79 969.519 1149.48 967.8 1150.64 966.153L1151.52 964.918L1154.51 967.04C1153.6 968.333 1153.08 969.818 1152.95 971.493C1152.94 973.252 1154.24 975.666 1156.83 978.735C1159.46 982.006 1163.86 986.265 1170.03 991.512C1176.11 996.877 1184.85 1003.85 1196.25 1012.44L1267.78 1064.37Z" fill="white"/>
<path d="M1149.39 1065.15L1146.77 1068.02L1118.07 1041.76C1114.14 1038.16 1110.49 1036.38 1107.13 1036.43C1103.78 1036.68 1100.3 1038.77 1096.7 1042.71L1084.45 1056.1C1083.38 1057.26 1082.85 1058.15 1082.88 1058.77C1082.91 1059.38 1083.51 1060.22 1084.68 1061.29L1126.44 1099.51L1162.14 1076.82L1218.26 1128.18L1215.63 1131.05L1161.59 1081.59L1129.15 1101.99L1190.68 1158.31L1188.06 1161.18L1090.5 1071.89C1085.5 1067.32 1082.91 1062.89 1082.72 1058.62C1082.64 1054.44 1084.83 1049.91 1089.31 1045.02L1093.83 1040.08C1098.4 1035.08 1102.77 1032.44 1106.94 1032.16C1111.12 1032.07 1115.7 1034.32 1120.7 1038.89L1149.39 1065.15Z" fill="white"/>
<path d="M1156.62 1190.06L1117.01 1143.75C1113.54 1139.7 1110.04 1137.39 1106.51 1136.81C1102.87 1136.32 1099.03 1137.81 1094.98 1141.27L1077.73 1156.02L1127.88 1214.64L1125.09 1217.03L1026.76 1102.08L1029.55 1099.69L1075.35 1153.23L1089.8 1140.87C1096.26 1135.34 1101.82 1132.76 1106.49 1133.13C1111.16 1133.49 1116.26 1136.9 1121.79 1143.36L1159.57 1187.53L1156.62 1190.06Z" fill="white"/>
<path d="M1056.94 1264.09L1053.88 1266.12L970.271 1140.06L973.333 1138.03L1026.24 1217.81L1037.16 1163.9L1005.75 1116.53L1008.99 1114.38L1092.6 1240.45L1089.36 1242.6L1038.12 1165.34L1027.32 1219.43L1056.94 1264.09Z" fill="white"/>
<path d="M1027.38 1280.75L976.635 1306.34L974.98 1303.06L998.713 1291.09L932.252 1159.31L935.532 1157.66L1001.99 1289.44L1025.73 1277.47L1027.38 1280.75Z" fill="white"/>
<path d="M948.342 1317.13L944.691 1318.47L922.112 1257.01L903.451 1263.87C899.394 1265.36 895.914 1266.33 893.011 1266.78C890.108 1267.24 887.596 1267.08 885.477 1266.33C883.357 1265.57 881.512 1264.1 879.942 1261.92C878.237 1259.78 876.688 1256.82 875.297 1253.03L859.499 1210.03C858.108 1206.24 857.371 1202.98 857.289 1200.25C857.071 1197.57 857.5 1195.19 858.576 1193.1C859.702 1191.15 861.518 1189.41 864.023 1187.88C866.529 1186.34 869.811 1184.83 873.867 1183.34L896.18 1175.14L948.342 1317.13ZM893.87 1180.14L861.01 1192.21C859.522 1192.76 858.65 1193.31 858.394 1193.86C858.002 1194.47 858.079 1195.51 858.626 1197L879.118 1252.78C880.956 1257.78 883.422 1260.94 886.516 1262.26C889.524 1263.77 893.53 1263.6 898.533 1261.76L920.846 1253.57L893.87 1180.14Z" fill="white"/>
<path d="M813.344 1354.43L768.022 1361.11L745.955 1211.47L749.803 1210.9L771.334 1356.91L808.96 1351.36L787.428 1205.35L791.277 1204.78L813.344 1354.43Z" fill="white"/>
<path d="M727.34 1363.49L703.577 1364.07C699.256 1364.18 695.649 1363.98 692.754 1363.47C689.86 1362.96 687.531 1362.01 685.768 1360.61C684.004 1359.22 682.729 1357.16 681.942 1354.44C681.015 1351.87 680.502 1348.57 680.403 1344.53L679.291 1298.95C679.189 1294.77 679.538 1291.38 680.339 1288.77C680.996 1286.16 682.171 1284.11 683.864 1282.63C685.557 1281.15 687.837 1280.08 690.703 1279.43C693.57 1278.79 697.163 1278.41 701.484 1278.31L721.359 1277.82L719.761 1212.36L723.65 1212.27L727.34 1363.49ZM721.448 1281.49L686.451 1282.35C684.867 1282.39 683.864 1282.63 683.443 1283.07C682.881 1283.66 682.619 1284.75 682.658 1286.33L684.108 1345.74C684.238 1351.07 685.555 1354.86 688.06 1357.1C690.424 1359.49 694.27 1360.62 699.599 1360.49L723.362 1359.91L721.448 1281.49Z" fill="white"/>
<path d="M645.693 1362.15L609.107 1358.82L609.44 1355.16L642.151 1358.14L648.449 1288.84L622.194 1286.45L622.546 1282.58L648.801 1284.97L655.157 1215.02L622.446 1212.05L622.798 1208.18L659.383 1211.5L645.693 1362.15Z" fill="white"/>
<path d="M606.239 1209.46L598.635 1207.81C595.588 1213.05 592.472 1221 589.286 1231.66C586.07 1242.46 582.804 1255.54 579.491 1270.89L562.252 1350.73L522.753 1342.2L553.855 1198.15L543.716 1195.96L551.56 1159.63L555.362 1160.45L548.339 1192.98L603.469 1204.88L610.492 1172.35L614.083 1173.12L606.239 1209.46ZM557.445 1198.92L527.119 1339.39L559.225 1346.32L575.688 1270.07C578.911 1255.14 582.045 1242.33 585.09 1231.64C588.105 1221.09 591.282 1212.86 594.622 1206.95L557.445 1198.92Z" fill="white"/>
<path d="M455.027 1258.74L458.488 1259.97L445.385 1296.82C443.599 1301.84 443.474 1305.85 445.009 1308.84C446.361 1311.92 449.548 1314.36 454.57 1316.14L474.524 1323.24C476.017 1323.77 477.131 1323.86 477.867 1323.51C478.419 1323.24 478.961 1322.37 479.492 1320.87L521.262 1203.39C523.048 1198.37 523.265 1194.32 521.914 1191.24C520.378 1188.25 517.1 1185.86 512.077 1184.07L502.711 1180.74C497.689 1178.96 493.706 1178.76 490.762 1180.16C487.634 1181.65 485.177 1184.9 483.391 1189.93L470.36 1226.58L466.899 1225.35L479.93 1188.7C482.198 1182.32 485.264 1178.21 489.128 1176.37C492.808 1174.62 497.77 1174.86 504.014 1177.08L513.38 1180.41C519.624 1182.63 523.689 1185.6 525.574 1189.33C527.275 1193.15 526.992 1198.24 524.724 1204.62L486.717 1311.52C484.497 1317.76 481.547 1321.76 477.867 1323.51C474.003 1325.34 468.949 1325.15 462.705 1322.93L453.339 1319.6C447.095 1317.38 443.123 1314.36 441.421 1310.55C439.536 1306.82 439.704 1301.83 441.924 1295.59L455.027 1258.74Z" fill="white"/>
<path d="M399.276 1296.58L395.803 1294.83L428.791 1229.42L416.442 1223.19L381.902 1234.57L360.494 1277.02L357.021 1275.27L379.11 1231.47L414.811 1219.71L402.95 1184.2L425.136 1140.21L428.609 1141.96L407.104 1184.6L418.772 1220.01L430.542 1225.95L463.919 1159.77L467.392 1161.52L399.276 1296.58Z" fill="white"/>
<path d="M303.885 1243.51L302.272 1242.43L305.3 1196.53L368.663 1102.42L371.889 1104.6L338.699 1153.89L372.219 1176.46L405.409 1127.17L408.456 1129.22L345.093 1223.32L303.885 1243.51ZM370.167 1179.51L336.647 1156.94L309.13 1197.81L306.416 1240.53L342.097 1223.13L342.046 1221.27L370.167 1179.51Z" fill="white"/>
<path d="M291.907 1159.59L266.173 1189.04C261.813 1194.03 257.546 1196.62 253.372 1196.8C249.103 1197.08 244.474 1195.05 239.483 1190.69L233.788 1185.71C228.797 1181.35 226.165 1177.14 225.891 1173.07C225.413 1169.02 226.976 1164.93 230.577 1160.81L259.155 1128.1C261.714 1125.17 264.444 1123.25 267.343 1122.34C270.148 1121.54 273.502 1122.08 277.407 1123.96C274.938 1120.66 273.756 1117.52 273.863 1114.55C273.86 1111.49 275.281 1108.33 278.125 1105.08L305.991 1073.18C310.446 1068.08 314.808 1065.39 319.077 1065.1C323.142 1064.83 327.725 1066.92 332.824 1071.37L339.333 1077.06C344.324 1081.42 347.01 1085.68 347.393 1089.84C347.572 1094.01 345.434 1098.65 340.979 1103.75L315.387 1133.04L312.621 1130.62L338.213 1101.33C341.72 1097.32 343.411 1093.63 343.287 1090.27C342.959 1086.92 340.788 1083.49 336.774 1079.99L321.64 1066.76C320.446 1065.72 319.545 1065.22 318.935 1065.26C318.325 1065.3 317.499 1065.92 316.456 1067.11L281.907 1106.66C278.779 1110.24 277.379 1113.7 277.707 1117.05C277.926 1120.3 280.043 1123.68 284.057 1127.19L292.519 1134.58L289.96 1137.51L281.986 1130.54C277.972 1127.04 274.338 1125.39 271.086 1125.61C267.63 1125.85 264.149 1127.97 260.642 1131.98L234.766 1161.6C231.069 1165.83 229.432 1169.57 229.854 1172.81C230.074 1176.06 232.19 1179.44 236.205 1182.94L241.9 1187.92C245.914 1191.43 249.649 1193.06 253.105 1192.83C256.357 1192.61 259.737 1190.5 263.244 1186.48L288.978 1157.03L291.907 1159.59Z" fill="white"/>
<path d="M174.257 1127.82L172.964 1126.36L187.295 1082.66L272.044 1007.24L274.63 1010.14L230.238 1049.65L257.102 1079.84L301.495 1040.33L303.937 1043.07L219.187 1118.5L174.257 1127.82ZM254.358 1082.28L227.493 1052.09L190.688 1084.85L177.45 1125.55L216.333 1117.56L216.745 1115.75L254.358 1082.28Z" fill="white"/>
<path d="M111.535 1041.06L109.333 1037.85L234.03 952.222L236.232 955.428L180.118 993.961L193.163 1031.66L258.006 987.137L260.207 990.343L135.51 1075.97L133.309 1072.76L190.135 1033.74L177.09 996.04L111.535 1041.06Z" fill="white"/>
<path d="M69.7407 964.415L68.0565 961.151L202.49 891.803L204.174 895.068L119.097 938.955L171.498 955.691L222.007 929.637L223.79 933.094L89.3561 1002.44L87.5729 998.984L169.962 956.484L117.369 939.847L69.7407 964.415Z" fill="white"/>
<path d="M53.0843 924.308L40.2213 889.897L43.6623 888.611L55.1634 919.378L120.341 895.014L111.11 870.319L114.753 868.957L123.984 893.652L189.769 869.061L178.268 838.294L181.912 836.932L194.775 871.342L53.0843 924.308Z" fill="white"/>
<path d="M1372.12 667.823L1331.68 709.823L1379.24 676.093L1332.99 711.596L1385.04 685.331L1334.02 713.545L1389.41 695.331L1334.75 715.625L1392.23 705.87L1335.16 717.791L1393.45 716.712L1335.24 719.993L1393.04 727.615L1334.99 722.183L1391.02 738.335L1334.42 724.312L1387.41 748.634L1333.54 726.332L1382.31 758.28L1332.37 728.198L1375.83 767.059L1330.93 729.869L1368.12 774.773L1329.26 731.306L1359.34 781.252L1327.39 732.479L1349.7 786.351L1325.37 733.36L1339.4 789.954L1323.24 733.93L1328.68 791.983L1321.05 734.177L1317.77 792.391L1318.85 734.095L1306.93 791.169L1316.69 733.685L1296.39 788.345L1314.61 732.957L1286.39 783.982L1312.66 731.927L1277.15 778.177L1310.88 730.619L1268.88 771.06L1309.33 729.06L1261.77 762.79L1308.02 727.287L1255.96 753.552L1306.99 725.338L1251.6 743.552L1306.26 723.258L1248.78 733.013L1305.85 721.093L1247.55 722.171L1305.77 718.89L1247.96 711.268L1306.01 716.7L1249.99 700.548L1306.58 714.571L1253.59 690.249L1307.47 712.551L1258.69 680.603L1308.64 710.685L1265.17 671.825L1310.08 709.015L1272.89 664.11L1311.75 707.577L1281.66 657.631L1313.61 706.404L1291.31 652.533L1315.63 705.523L1301.61 648.929L1317.76 704.953L1312.33 646.901L1319.95 704.706L1323.23 646.493L1322.15 704.788L1334.07 647.714L1324.32 705.198L1344.61 650.538L1326.4 705.926L1354.61 654.901L1328.35 706.956L1363.85 660.706L1330.12 708.265L1372.12 667.823Z" fill="#D9D9D9"/>
<path d="M131.856 636.71L91.4146 678.71L138.973 644.98L92.7233 680.484L144.778 654.218L93.7532 682.432L149.141 664.219L94.4811 684.512L151.965 674.757L94.8908 686.678L153.186 685.599L94.9732 688.88L152.779 696.502L94.7265 691.07L150.75 707.223L94.1561 693.199L147.147 717.521L93.2747 695.219L142.048 727.167L92.1021 697.085L135.569 735.946L90.6645 698.756L127.855 743.661L88.994 700.193L119.076 750.14L87.1279 701.366L109.43 755.238L85.1078 702.247L99.1313 758.841L82.979 702.818L88.411 760.87L80.7889 703.065L77.508 761.278L78.5865 702.982L66.666 760.056L76.421 702.572L56.1272 757.232L74.3407 701.845L46.1269 752.869L72.3922 700.815L36.8887 747.065L70.6189 699.506L28.6188 739.948L69.0605 697.948L21.5019 731.678L67.7518 696.174L15.6971 722.439L66.7219 694.226L11.3341 712.439L65.994 692.145L8.5102 701.9L65.5843 689.98L7.2886 691.058L65.5019 687.778L7.69656 680.155L65.7486 685.587L9.72496 669.435L66.319 683.459L13.3285 659.137L67.2004 681.439L18.4267 649.491L68.373 679.572L24.9056 640.712L69.8106 677.902L32.6206 632.997L71.4811 676.464L41.3992 626.518L73.3472 675.292L51.0454 621.42L75.3673 674.41L61.3438 617.816L77.4961 673.84L72.0641 615.788L79.6862 673.593L82.9671 615.38L81.8886 673.676L93.8091 616.602L84.0541 674.085L104.348 619.425L86.1344 674.813L114.348 623.788L88.0829 675.843L123.586 629.593L89.8562 677.152L131.856 636.71Z" fill="#D9D9D9"/>
</svg>
